<?xml version="1.0" encoding="iso-8859-1"?>
<!-- Generator: Adobe Illustrator 19.0.0, SVG Export Plug-In . SVG Version: 6.00 Build 0)  -->
<svg version="1.1" id="Layer_1" xmlns="http://www.w3.org/2000/svg" xmlns:xlink="http://www.w3.org/1999/xlink" x="0px" y="0px"
	 viewBox="0 0 511.653 511.653" style="enable-background:new 0 0 511.653 511.653;" xml:space="preserve">
<g transform="translate(1 1)">
	<g>
		<g>
			<path d="M505.88,305.173c-15.36-20.48-30.72-20.48-68.267-0.853l-73.387,45.227c-10.24,5.973-33.28,7.68-54.613,7.68
				c4.267-7.68,2.56-17.067-5.12-28.16c-5.596-8.045-12.772-14.796-20.993-19.967l56.833-56.833c3.413-3.413,3.413-8.533,0-11.947
				l-96.427-96.427c-3.413-3.413-8.533-3.413-11.947,0l-96.427,96.427c-3.413,3.413-3.413,8.533,0,11.947l35.161,35.161
				c-3.333-1.832-6.535-3.878-9.561-6.147c-30.791-23.093-78.94,2.035-102.4,17.023v-17.876H-1v221.867h59.733v-25.6h110.933
				c17.067,0,34.987-1.707,52.053-2.56l110.933-17.067c4.267,0,8.533-0.853,11.947-1.707c10.24-1.707,19.627-6.827,28.16-14.507
				l128.853-101.547C511.853,330.773,513.56,315.413,505.88,305.173z M153.453,246.293l84.48-84.48l84.48,84.48l-55.138,55.138
				c-7.681-2.568-15.853-3.938-24.222-3.938h-33.28c-1.781,0-3.55-0.075-5.312-0.192L153.453,246.293z M41.667,485.226h-25.6
				V297.493h25.6v12.8v166.4V485.226z M491.373,326.506L361.667,427.2l-0.853,0.853c-5.12,5.973-11.947,9.387-19.627,10.24
				c-3.413,0.853-5.973,0.853-9.387,0.853l-112.64,17.067c-16.213,2.56-33.28,3.413-49.493,3.413H58.733v-140.8
				c20.48-14.507,68.267-41.813,92.16-23.893c14.525,11.467,33.162,18.123,52.224,19.388c2.219,0.234,4.437,0.239,6.656,0.239h33.28
				c19.627,0,37.547,9.387,48.64,24.747c3.413,5.12,4.267,10.24,3.413,11.947c-2.56,4.267-12.8,5.973-23.893,6.827
				c-3.049,0-6.093,0-8.533,0c-0.292,0-0.58,0-0.853,0h-81.92c-26.453,0-42.667,12.8-42.667,34.133c0,5.12,3.413,8.533,8.533,8.533
				c5.12,0,8.533-3.413,8.533-8.533c0-4.267,0-17.067,25.6-17.067h81.067c0.527,0,1.1,0,1.707,0c2.341,0,5.32,0,9.387,0
				c0.853,0,2.56,0,4.267,0c40.107,0.853,77.653,0,97.28-10.24L447,319.68c35.84-17.92,39.253-13.653,46.08-3.413
				C494.787,318.826,494.787,323.947,491.373,326.506z"/>
			<path d="M184.173,240.32c-3.413,3.413-3.413,8.533,0,11.947s8.533,3.413,11.947,0c2.56-3.413,2.56-8.533,0-11.947
				C192.707,236.906,187.587,236.906,184.173,240.32z"/>
			<path d="M243.907,252.266c3.413-3.413,3.413-8.533,0-11.947s-8.533-3.413-11.947,0s-3.413,8.533,0,11.947
				S240.493,255.68,243.907,252.266z"/>
			<path d="M292.547,252.266c3.413-3.413,3.413-8.533,0-11.947s-8.533-3.413-11.947,0s-3.413,8.533,0,11.947
				S289.133,255.68,292.547,252.266z"/>
			<path d="M323.267,160.96H459.8c5.12,0,8.533-3.413,8.533-8.533V15.893c0-5.12-3.413-8.533-8.533-8.533H323.267
				c-5.12,0-8.533,3.413-8.533,8.533v136.533C314.733,157.546,318.147,160.96,323.267,160.96z M331.8,24.426h119.467v119.467H331.8
				V24.426z"/>
			<path d="M357.4,41.493c-5.12,0-8.533,3.413-8.533,8.533s3.413,8.533,8.533,8.533s8.533-3.413,8.533-8.533
				S362.52,41.493,357.4,41.493z"/>
			<path d="M425.667,41.493c-5.12,0-8.533,3.413-8.533,8.533s3.413,8.533,8.533,8.533s8.533-3.413,8.533-8.533
				S430.787,41.493,425.667,41.493z"/>
			<path d="M357.4,109.76c-5.12,0-8.533,3.413-8.533,8.533s3.413,8.533,8.533,8.533s8.533-3.413,8.533-8.533
				S362.52,109.76,357.4,109.76z"/>
			<path d="M391.533,75.626c-5.12,0-8.533,3.413-8.533,8.533s3.413,8.533,8.533,8.533c5.12,0,8.533-3.413,8.533-8.533
				S396.653,75.626,391.533,75.626z"/>
			<path d="M425.667,109.76c-5.12,0-8.533,3.413-8.533,8.533s3.413,8.533,8.533,8.533s8.533-3.413,8.533-8.533
				S430.787,109.76,425.667,109.76z"/>
		</g>
	</g>
</g>
<g>
</g>
<g>
</g>
<g>
</g>
<g>
</g>
<g>
</g>
<g>
</g>
<g>
</g>
<g>
</g>
<g>
</g>
<g>
</g>
<g>
</g>
<g>
</g>
<g>
</g>
<g>
</g>
<g>
</g>
</svg>
