<?xml version="1.0" encoding="UTF-8" standalone="no"?>
<svg
   width="445.11124"
   height="445.11124"
   viewBox="0 0 445.11124 445.11124"
   version="1.1"
   id="svg4"
   sodipodi:docname="Zubehoer_icon.svg"
   inkscape:version="1.1.1 (1:1.1+202109281949+c3084ef5ed)"
   xmlns:inkscape="http://www.inkscape.org/namespaces/inkscape"
   xmlns:sodipodi="http://sodipodi.sourceforge.net/DTD/sodipodi-0.dtd"
   xmlns="http://www.w3.org/2000/svg"
   xmlns:svg="http://www.w3.org/2000/svg">
  <defs
     id="defs8">
    <inkscape:perspective
       sodipodi:type="inkscape:persp3d"
       inkscape:vp_x="0 : 189.11124 : 1"
       inkscape:vp_y="0 : 1000 : 0"
       inkscape:vp_z="512 : 189.11124 : 1"
       inkscape:persp3d-origin="256 : 103.77791 : 1"
       id="perspective1115" />
  </defs>
  <sodipodi:namedview
     id="namedview6"
     pagecolor="#ffffff"
     bordercolor="#666666"
     borderopacity="1.0"
     inkscape:pageshadow="2"
     inkscape:pageopacity="0.0"
     inkscape:pagecheckerboard="0"
     showgrid="false"
     inkscape:zoom="0.9878512"
     inkscape:cx="281.4189"
     inkscape:cy="270.28362"
     inkscape:window-width="1920"
     inkscape:window-height="1017"
     inkscape:window-x="0"
     inkscape:window-y="483"
     inkscape:window-maximized="1"
     inkscape:current-layer="svg4" />
  <path
     fill="#000000"
     d="m 242.11593,86.687644 -11.9002,0.127597 0.27768,25.770529 c -30.26154,8.783 -71.75355,13.04922 -110.05962,15.58463 23.2034,63.65546 65.68709,114.88316 104.35479,169.99428 13.69713,-12.99435 33.78995,-21.14466 55.17724,-23.807 -13.75133,-11.97226 -24.21954,-18.48893 -38.89579,-46.56811 20.67329,24.51771 34.76114,32.0426 51.31827,40.99353 2.15724,-8.65673 5.90911,-16.28872 12.37687,-21.6015 5.72994,-4.70719 13.23963,-7.04359 22.16742,-6.83864 -30.98943,-39.51063 -67.21627,-77.38697 -84.51122,-125.23964 l -0.30544,-28.415015 z m -130.83934,7.718599 -11.898874,0.161313 c 0,0 0.16528,12.124974 0.37023,24.441674 0.10313,6.15901 0.21486,12.36496 0.323294,17.14223 0.0397,1.74272 0.0773,3.02794 0.11503,4.32506 -22.728051,55.35772 -45.719228,106.43601 -81.926232,154.33363 22.236837,-0.91698 43.849574,-0.79533 65.15489,-0.0271 14.718558,-41.39747 15.434548,-89.1556 23.553792,-133.5506 7.54803,45.32785 6.98542,92.19015 22.13635,136.07873 28.40312,2.03758 56.65154,4.75876 85.51612,7.22342 -36.80466,-52.32846 -78.15321,-102.49836 -102.55191,-164.86067 -0.0331,-1.17812 -0.0661,-2.24517 -0.10049,-3.79286 -0.10711,-4.73099 -0.22016,-10.92372 -0.32263,-17.07017 -0.20495,-12.2929 -0.36957,-24.404647 -0.36957,-24.404647 z"
     id="path2"
     style="stroke-width:0.661122" />
  <path
     style="fill:none;stroke:#000000;stroke-width:9.9;stroke-linecap:round;stroke-linejoin:miter;stroke-miterlimit:4;stroke-dasharray:none;stroke-opacity:1"
     d="m 242.18801,314.98767 112.7153,-64.55249"
     id="path1494" />
  <g
     id="g2273"
     transform="rotate(60.506905,249.69089,537.40121)">
    <path
       style="fill:none;stroke:#000000;stroke-width:2.4;stroke-linecap:round;stroke-linejoin:miter;stroke-miterlimit:4;stroke-dasharray:none;stroke-opacity:1;paint-order:fill markers stroke"
       d="m 105.69891,318.6511 v 35.27955"
       id="path1861" />
    <path
       style="fill:none;stroke:#000000;stroke-width:0.6;stroke-linecap:butt;stroke-linejoin:miter;stroke-miterlimit:4;stroke-dasharray:none;stroke-opacity:1"
       d="m 100.41491,323.21349 h 10.51093"
       id="path2086" />
  </g>
  <g
     id="g2279"
     transform="rotate(60.506905,257.3157,550.47387)">
    <path
       style="fill:none;stroke:#000000;stroke-width:2.4;stroke-linecap:round;stroke-linejoin:miter;stroke-miterlimit:4;stroke-dasharray:none;stroke-opacity:1;paint-order:fill markers stroke"
       d="m 105.69891,318.6511 v 35.27955"
       id="path2275" />
    <path
       style="fill:none;stroke:#000000;stroke-width:0.6;stroke-linecap:butt;stroke-linejoin:miter;stroke-miterlimit:4;stroke-dasharray:none;stroke-opacity:1"
       d="m 100.41491,323.21349 h 10.51093"
       id="path2277" />
  </g>
  <g
     id="g2285"
     transform="rotate(60.506905,265.82409,565.06142)">
    <path
       style="fill:none;stroke:#000000;stroke-width:2.4;stroke-linecap:round;stroke-linejoin:miter;stroke-miterlimit:4;stroke-dasharray:none;stroke-opacity:1;paint-order:fill markers stroke"
       d="m 105.69891,318.6511 v 35.27955"
       id="path2281" />
    <path
       style="fill:none;stroke:#000000;stroke-width:0.6;stroke-linecap:butt;stroke-linejoin:miter;stroke-miterlimit:4;stroke-dasharray:none;stroke-opacity:1"
       d="m 100.41491,323.21349 h 10.51093"
       id="path2283" />
  </g>
  <g
     id="g2291"
     transform="rotate(60.506905,273.84313,578.80999)">
    <path
       style="fill:none;stroke:#000000;stroke-width:2.4;stroke-linecap:round;stroke-linejoin:miter;stroke-miterlimit:4;stroke-dasharray:none;stroke-opacity:1;paint-order:fill markers stroke"
       d="m 105.69891,318.6511 v 35.27955"
       id="path2287" />
    <path
       style="fill:none;stroke:#000000;stroke-width:0.6;stroke-linecap:butt;stroke-linejoin:miter;stroke-miterlimit:4;stroke-dasharray:none;stroke-opacity:1"
       d="m 100.41491,323.21349 h 10.51093"
       id="path2289" />
  </g>
  <path
     style="fill:none;stroke:#000000;stroke-width:9.9;stroke-linecap:round;stroke-linejoin:miter;stroke-miterlimit:4;stroke-dasharray:none;stroke-opacity:1"
     d="m 274.66614,314.98767 112.7153,-64.55249"
     id="path2453" />
  <path
     style="fill:none;stroke:#000000;stroke-width:9.9;stroke-linecap:round;stroke-linejoin:miter;stroke-miterlimit:4;stroke-dasharray:none;stroke-opacity:1"
     d="m 312.34075,314.98767 112.7153,-64.55249"
     id="path2455" />
</svg>
