<?xml version="1.0" encoding="UTF-8" standalone="no"?>
<!-- Created with Inkscape (http://www.inkscape.org/) -->

<svg
   sodipodi:docname="labels_a4.svg"
   id="svg5"
   version="1.1"
   viewBox="0 0 210 297"
   height="297mm"
   width="210mm"
   inkscape:version="1.2.2 (b0a8486541, 2022-12-01)"
   xmlns:inkscape="http://www.inkscape.org/namespaces/inkscape"
   xmlns:sodipodi="http://sodipodi.sourceforge.net/DTD/sodipodi-0.dtd"
   xmlns="http://www.w3.org/2000/svg"
   xmlns:svg="http://www.w3.org/2000/svg">
  <sodipodi:namedview
     id="namedview7"
     pagecolor="#ffffff"
     bordercolor="#000000"
     borderopacity="0.25"
     inkscape:showpageshadow="2"
     inkscape:pageopacity="0.0"
     inkscape:pagecheckerboard="0"
     inkscape:deskcolor="#d1d1d1"
     inkscape:document-units="mm"
     showgrid="false"
     showguides="true"
     inkscape:zoom="1.0595392"
     inkscape:cx="501.63316"
     inkscape:cy="265.20963"
     inkscape:window-width="1920"
     inkscape:window-height="1021"
     inkscape:window-x="0"
     inkscape:window-y="30"
     inkscape:window-maximized="1"
     inkscape:current-layer="layer1">
    <sodipodi:guide
       position="41.082169,279.17501"
       orientation="1,0"
       id="guide2641"
       inkscape:locked="false" />
  </sodipodi:namedview>
  <defs
     id="defs2">
    <rect
       x="570.3432"
       y="58.178019"
       width="203.97906"
       height="16.584687"
       id="rect537" />
    <rect
       x="778.41217"
       y="57.674663"
       width="216.80389"
       height="14.036775"
       id="rect531" />
    <rect
       x="771.64808"
       y="63.766566"
       width="13.816351"
       height="16.24514"
       id="rect525" />
    <rect
       x="680.04848"
       y="67.370082"
       width="47.860388"
       height="12.572938"
       id="rect519" />
    <rect
       x="572.94197"
       y="88.132705"
       width="203.42521"
       height="26.370684"
       id="rect4909" />
    <rect
       x="570.3432"
       y="55.20881"
       width="208.06898"
       height="29.989358"
       id="rect4897" />
  </defs>
  <g
     inkscape:label="Ebene 1"
     inkscape:groupmode="layer"
     id="layer1">
    <rect
       style="fill:none;stroke:#000000;stroke-width:0.2;stroke-linecap:square;stroke-linejoin:round"
       id="rect539"
       width="204.12991"
       height="27.808594"
       x="2.6381836"
       y="3.9207034"
       rx="0"
       ry="0" />
    <text
       xml:space="preserve"
       style="font-size:25.9154px;font-family:Ani;-inkscape-font-specification:'Ani, Normal';fill:none;stroke:#000000;stroke-width:0.2;stroke-linecap:square;stroke-linejoin:round"
       x="7.9489813"
       y="8.6417913"
       id="text1204"><tspan
         sodipodi:role="line"
         id="tspan1202"
         style="stroke-width:0.2"
         x="7.9489813"
         y="8.6417913" /></text>
    <text
       xml:space="preserve"
       style="font-style:normal;font-variant:normal;font-weight:bold;font-stretch:normal;font-size:8.83102px;font-family:Arvo;-inkscape-font-specification:'Arvo, Bold';font-variant-ligatures:normal;font-variant-caps:normal;font-variant-numeric:normal;font-variant-east-asian:normal;fill:#000000;stroke:none;stroke-width:0.2;stroke-linecap:square;stroke-linejoin:round"
       x="150.6489"
       y="11.570591"
       id="text1208"><tspan
         sodipodi:role="line"
         id="tspan1206"
         style="font-style:normal;font-variant:normal;font-weight:bold;font-stretch:normal;font-size:8.83102px;font-family:Arvo;-inkscape-font-specification:'Arvo, Bold';font-variant-ligatures:normal;font-variant-caps:normal;font-variant-numeric:normal;font-variant-east-asian:normal;fill:#000000;stroke:none;stroke-width:0.2"
         x="150.6489"
         y="11.570591">knotnpunkt</tspan></text>
    <text
       xml:space="preserve"
       style="font-style:normal;font-variant:normal;font-weight:normal;font-stretch:normal;font-size:8.11521px;font-family:Arvo;-inkscape-font-specification:'Arvo, Normal';font-variant-ligatures:normal;font-variant-caps:normal;font-variant-numeric:normal;font-variant-east-asian:normal;fill:#000000;stroke:none;stroke-width:0.2;stroke-linecap:square;stroke-linejoin:round"
       x="67.626167"
       y="40.838036"
       id="text1370"><tspan
         sodipodi:role="line"
         id="tspan1368"
         style="stroke-width:0.2"
         x="67.626167"
         y="40.838036">Material-Export</tspan></text>
    <text
       xml:space="preserve"
       style="font-style:normal;font-variant:normal;font-weight:bold;font-stretch:normal;font-size:12.6889px;font-family:Arvo;-inkscape-font-specification:'Arvo, Bold';font-variant-ligatures:normal;font-variant-caps:normal;font-variant-numeric:normal;font-variant-east-asian:normal;fill:#000000;stroke:none;stroke-width:0.2;stroke-linecap:square;stroke-linejoin:round"
       x="6.28269"
       y="18.164621"
       id="text1426"><tspan
         sodipodi:role="line"
         id="tspan1424"
         style="stroke-width:0.2;fill:#000000"
         x="6.28269"
         y="18.164621" /></text>
    <text
       xml:space="preserve"
       style="font-style:normal;font-variant:normal;font-weight:bold;font-stretch:normal;font-size:5.64444px;font-family:Arvo;-inkscape-font-specification:'Arvo, Bold';font-variant-ligatures:normal;font-variant-caps:normal;font-variant-numeric:normal;font-variant-east-asian:normal;fill:#000000;stroke:none;stroke-width:0.2;stroke-linecap:square;stroke-linejoin:round"
       x="22.89629"
       y="15.335424"
       id="text1480"><tspan
         sodipodi:role="line"
         id="tspan1482" /></text>
    <text
       xml:space="preserve"
       style="font-style:normal;font-variant:normal;font-weight:bold;font-stretch:normal;font-size:3.14043px;font-family:Arvo;-inkscape-font-specification:'Arvo, Bold';font-variant-ligatures:normal;font-variant-caps:normal;font-variant-numeric:normal;font-variant-east-asian:normal;fill:#000000;stroke:none;stroke-width:0.2;stroke-linecap:square;stroke-linejoin:round"
       x="28.538851"
       y="8.9371433"
       id="text1486"><tspan
         sodipodi:role="line"
         id="tspan1484"
         style="font-style:normal;font-variant:normal;font-weight:bold;font-stretch:normal;font-size:3.14043px;font-family:monospace;-inkscape-font-specification:'monospace, Bold';font-variant-ligatures:normal;font-variant-caps:normal;font-variant-numeric:normal;font-variant-east-asian:normal;stroke-width:0.2"
         x="28.538851"
         y="8.9371433">Nutzer:</tspan></text>
    <text
       xml:space="preserve"
       style="font-style:normal;font-variant:normal;font-weight:bold;font-stretch:normal;font-size:3.14043px;font-family:monospace;-inkscape-font-specification:'monospace, Bold';font-variant-ligatures:normal;font-variant-caps:normal;font-variant-numeric:normal;font-variant-east-asian:normal;fill:#000000;stroke:none;stroke-width:0.2;stroke-linecap:square;stroke-linejoin:round"
       x="30.429548"
       y="13.226964"
       id="text1490"><tspan
         sodipodi:role="line"
         id="tspan1488"
         style="stroke-width:0.2"
         x="30.429548"
         y="13.226964">Datum:</tspan></text>
    <text
       xml:space="preserve"
       style="font-style:normal;font-variant:normal;font-weight:bold;font-stretch:normal;font-size:3.14043px;font-family:monospace;-inkscape-font-specification:'monospace, Bold';font-variant-ligatures:normal;font-variant-caps:normal;font-variant-numeric:normal;font-variant-east-asian:normal;fill:#000000;stroke:none;stroke-width:0.2;stroke-linecap:square;stroke-linejoin:round"
       x="26.648153"
       y="17.780531"
       id="text1494"><tspan
         sodipodi:role="line"
         id="tspan1492"
         style="stroke-width:0.2"
         x="26.648153"
         y="17.780531">Uhrzeit:</tspan></text>
    <text
       xml:space="preserve"
       style="font-style:normal;font-variant:normal;font-weight:bold;font-stretch:normal;font-size:3.14043px;font-family:monospace;-inkscape-font-specification:'monospace, Bold';font-variant-ligatures:normal;font-variant-caps:normal;font-variant-numeric:normal;font-variant-east-asian:normal;fill:#000000;stroke:none;stroke-width:0.2;stroke-linecap:square;stroke-linejoin:round"
       x="13.413276"
       y="23.030268"
       id="text1502"><tspan
         sodipodi:role="line"
         id="tspan1500"
         style="stroke-width:0.2"
         x="13.413276"
         y="23.030268">Anzahl Artikel:</tspan></text>
    <text
       xml:space="preserve"
       style="font-style:normal;font-variant:normal;font-weight:bold;font-stretch:normal;font-size:3.14043px;font-family:monospace;-inkscape-font-specification:'monospace, Bold';font-variant-ligatures:normal;font-variant-caps:normal;font-variant-numeric:normal;font-variant-east-asian:normal;fill:#000000;stroke:none;stroke-width:0.2;stroke-linecap:square;stroke-linejoin:round"
       x="15.303973"
       y="26.946785"
       id="text1506"><tspan
         sodipodi:role="line"
         id="tspan1504"
         style="stroke-width:0.2"
         x="15.303973"
         y="26.946785">Anzahl Seiten:</tspan></text>
    <g
       style="fill:#000000;stroke:none;stroke-width:1.52632"
       id="g2638"
       transform="matrix(0.17334749,0,0,0.17334749,-29.582677,49.734542)">
      <g
         inkscape:label="QR Code: kp0001;8er Jurte;schwarz"
         transform="matrix(1.1882706,0,0,1.1882706,483.49271,349.80382)"
         id="g3916"
         style="stroke-width:0.339854" />
    </g>
    <!-- ##################################### -->
    <g
       id="g354{{loop.index}}"
       {% if reihe is gt(0)%}
       transform="translate({{48.455681*(loop.index-1)}}, {{25.947403*reihe}})"
       {%elif loop.index is gt(1) %}
       transform="translate({{48.455681*(loop.index-1)}})"
       {%endif%}>
      <rect
         style="fill:none;stroke:#000000;stroke-width:0.2;stroke-linecap:square;stroke-linejoin:round"
         id="rect1514"
         width="48.455681"
         height="25.947403"
         x="7.7917914"
         y="49.588554" />
      <g
         style="fill:#000000;stroke:none"
         id="g3914"
         transform="matrix(0.17334749,0,0,0.17334749,7.3653713,49.034541)">
         <path transform="scale(3.2)" class="qrline" stroke="#000" d="M4 4.5h7m1 0h6m2 0h3m3 0h1m2 0h1m2 0h2m4 0h7m-41 1h1m5 0h1m6 0h2m3 0h3m3 0h2m2 0h1m1 0h3m1 0h1m5 0h1m-41 1h1m1 0h3m1 0h1m2 0h5m1 0h2m1 0h2m1 0h1m3 0h3m2 0h3m1 0h1m1 0h3m1 0h1m-41 1h1m1 0h3m1 0h1m3 0h2m1 0h2m1 0h3m1 0h3m1 0h2m2 0h1m2 0h2m1 0h1m1 0h3m1 0h1m-41 1h1m1 0h3m1 0h1m3 0h1m1 0h1m1 0h1m2 0h5m2 0h3m1 0h5m1 0h1m1 0h3m1 0h1m-41 1h1m5 0h1m3 0h1m1 0h2m2 0h2m5 0h3m3 0h1m4 0h1m5 0h1m-41 1h7m1 0h1m1 0h1m1 0h1m1 0h1m1 0h1m1 0h1m1 0h1m1 0h1m1 0h1m1 0h1m1 0h1m1 0h1m1 0h1m1 0h7m-33 1h2m1 0h1m1 0h2m4 0h2m1 0h2m1 0h4m1 0h2m-32 1h2m1 0h2m1 0h1m2 0h2m1 0h1m2 0h3m1 0h1m1 0h3m3 0h3m1 0h1m2 0h1m5 0h1m-41 1h1m4 0h1m2 0h2m1 0h2m2 0h2m2 0h2m1 0h2m1 0h3m2 0h2m1 0h1m2 0h2m1 0h1m-40 1h2m1 0h2m1 0h5m1 0h1m1 0h2m1 0h2m2 0h1m1 0h2m2 0h2m1 0h1m3 0h4m1 0h1m-40 1h2m3 0h1m1 0h4m4 0h4m1 0h1m1 0h1m1 0h1m4 0h2m1 0h1m3 0h2m-37 1h2m1 0h4m2 0h1m1 0h1m1 0h1m1 0h1m1 0h3m1 0h3m6 0h1m1 0h3m3 0h2m-41 1h2m2 0h1m2 0h2m4 0h3m2 0h1m1 0h2m1 0h1m1 0h4m1 0h1m3 0h5m1 0h1m-41 1h4m2 0h1m1 0h2m1 0h9m2 0h1m2 0h1m1 0h1m3 0h1m1 0h3m4 0h1m-41 1h3m1 0h2m1 0h1m2 0h2m4 0h1m1 0h1m1 0h1m1 0h1m1 0h1m1 0h2m3 0h2m1 0h2m2 0h1m-34 1h2m2 0h2m2 0h4m3 0h3m2 0h2m3 0h1m1 0h2m3 0h1m2 0h1m-40 1h2m4 0h3m2 0h1m2 0h3m1 0h2m4 0h3m1 0h4m3 0h2m1 0h1m-39 1h2m1 0h1m1 0h2m1 0h1m1 0h13m1 0h1m1 0h1m1 0h6m2 0h4m-40 1h2m1 0h1m7 0h3m1 0h1m1 0h2m5 0h2m5 0h1m5 0h1m-38 1h1m1 0h5m1 0h1m5 0h5m2 0h1m1 0h1m2 0h3m2 0h1m1 0h1m2 0h4m-39 1h2m3 0h1m1 0h1m2 0h5m1 0h3m1 0h2m1 0h3m1 0h3m1 0h4m-37 1h1m1 0h1m3 0h1m2 0h3m1 0h1m1 0h1m2 0h1m1 0h2m1 0h1m2 0h2m6 0h2m-35 1h3m1 0h1m1 0h1m3 0h2m3 0h2m5 0h1m4 0h2m2 0h1m3 0h1m2 0h1m-38 1h10m2 0h2m3 0h3m5 0h2m1 0h2m1 0h3m3 0h1m-40 1h5m2 0h1m2 0h4m1 0h2m5 0h2m1 0h4m2 0h1m1 0h4m3 0h1m-39 1h1m1 0h1m1 0h1m3 0h1m1 0h2m1 0h2m1 0h5m1 0h2m1 0h2m2 0h4m2 0h4m-40 1h1m2 0h2m2 0h2m1 0h2m1 0h1m3 0h2m2 0h3m1 0h2m2 0h2m3 0h1m1 0h2m-36 1h4m1 0h2m1 0h4m3 0h3m3 0h3m1 0h1m2 0h2m3 0h2m1 0h1m-40 1h1m1 0h3m3 0h1m1 0h2m3 0h5m2 0h1m6 0h4m3 0h1m-37 1h2m3 0h2m2 0h1m2 0h6m1 0h2m1 0h4m1 0h1m1 0h7m1 0h1m2 0h1m-41 1h3m7 0h2m1 0h1m4 0h3m4 0h1m2 0h1m3 0h2m3 0h2m1 0h1m-41 1h3m1 0h5m1 0h2m3 0h3m1 0h1m2 0h1m1 0h1m1 0h1m1 0h9m1 0h3m-33 1h1m1 0h3m2 0h1m2 0h2m2 0h1m2 0h1m4 0h1m1 0h1m3 0h1m1 0h2m-40 1h7m4 0h2m1 0h2m1 0h2m2 0h1m1 0h2m1 0h2m1 0h1m1 0h2m1 0h1m1 0h1m1 0h2m-40 1h1m5 0h1m2 0h2m6 0h3m2 0h3m2 0h3m2 0h1m3 0h2m-38 1h1m1 0h3m1 0h1m1 0h1m3 0h3m1 0h1m1 0h3m1 0h3m3 0h1m2 0h6m2 0h2m-41 1h1m1 0h3m1 0h1m1 0h3m1 0h4m2 0h1m1 0h2m1 0h1m1 0h3m1 0h3m5 0h1m-38 1h1m1 0h3m1 0h1m2 0h1m2 0h1m2 0h2m2 0h1m1 0h1m5 0h3m1 0h2m2 0h3m1 0h1m-40 1h1m5 0h1m1 0h3m1 0h1m1 0h1m1 0h1m3 0h1m3 0h1m1 0h2m5 0h1m1 0h2m1 0h1m1 0h1m-41 1h7m1 0h2m1 0h5m4 0h7m2 0h4m1 0h1m1 0h1m1 0h1"></path>
      </g>
      <text
         xml:space="preserve"
         style="font-style:normal;font-variant:normal;font-weight:bold;font-stretch:normal;font-size:5.64444px;font-family:monospace;-inkscape-font-specification:'monospace, Bold';font-variant-ligatures:normal;font-variant-caps:normal;font-variant-numeric:normal;font-variant-east-asian:normal;word-spacing:0px;fill:none;stroke:#000000;stroke-width:0.2;stroke-linecap:square;stroke-linejoin:round"
         x="32.748444"
         y="59.029972"
         id="text2815"><tspan
           sodipodi:role="line"
           id="tspan2813"
           style="font-style:normal;font-variant:normal;font-weight:bold;font-stretch:normal;font-size:3.175px;font-family:'Courier New';-inkscape-font-specification:'Courier New, Bold';font-variant-ligatures:normal;font-variant-caps:normal;font-variant-numeric:normal;font-variant-east-asian:normal;fill:#000000;stroke:none;stroke-width:0.2"
           x="32.748444"
           y="59.029972"
           dy="1.8200001"
           rotate="0 0 0 0 0 0 0 0 0 0"
           dx="0">{{m.name}}</tspan><tspan
           sodipodi:role="line"
           style="font-style:normal;font-variant:normal;font-weight:bold;font-stretch:normal;font-size:3.175px;font-family:'Courier New';-inkscape-font-specification:'Courier New, Bold';font-variant-ligatures:normal;font-variant-caps:normal;font-variant-numeric:normal;font-variant-east-asian:normal;fill:#000000;stroke:none;stroke-width:0.2"
           x="32.748444"
           y="66.085526"
           id="tspan2817"
           rotate="0 0 0 0 0 0 0 0"
           dy="-1.7 0 0 0 0">{{m.Eigenschaften.get("farbe", "")}}</tspan><tspan
           sodipodi:role="line"
           style="font-style:normal;font-variant:normal;font-weight:bold;font-stretch:normal;font-size:3.175px;font-family:'Courier New';-inkscape-font-specification:'Courier New, Bold';font-variant-ligatures:normal;font-variant-caps:normal;font-variant-numeric:normal;font-variant-east-asian:normal;fill:#000000;stroke:none;stroke-width:0.2"
           x="32.748444"
           y="73.141075"
           id="tspan2819"
           rotate="0 0 0 0 0 0 0 0"
           dy="-4.52">id:{{"%04d"|format(m.idMaterial)}}</tspan></text>
      <text
         xml:space="preserve"
         style="font-style:normal;font-variant:normal;font-weight:bold;font-stretch:normal;font-size:3.175px;font-family:'Courier New';-inkscape-font-specification:'Courier New, Bold';font-variant-ligatures:normal;font-variant-caps:normal;font-variant-numeric:normal;font-variant-east-asian:normal;fill:#000000;stroke:none;stroke-width:0.2;stroke-linecap:square;stroke-linejoin:round"
         x="32.901924"
         y="56.430759"
         id="text3831"><tspan
           sodipodi:role="line"
           id="tspan3829"
           style="stroke-width:0.2"
           x="32.901924"
           y="56.430759">{{org_name}}</tspan></text>
    </g>
    <!-- ####################################### -->


    <g
       inkscape:label="QR Code: m1;8er Jurte;schwarz"
       transform="matrix(0.1796316,0,0,0.1796316,112.88333,122.88095)"
       id="g4723"
       style="stroke-width:1.47292" />
    <text
       xml:space="preserve"
       style="font-style:normal;font-variant:normal;font-weight:bold;font-stretch:normal;font-size:3.14043px;font-family:Arvo;-inkscape-font-specification:'Arvo, Bold';font-variant-ligatures:normal;font-variant-caps:normal;font-variant-numeric:normal;font-variant-east-asian:normal;fill:#000000;stroke:none;stroke-width:0.2;stroke-linecap:square;stroke-linejoin:round"
       x="45.03738"
       y="8.9371433"
       id="text4873"><tspan
         sodipodi:role="line"
         id="tspan4871"
         style="font-style:normal;font-variant:normal;font-weight:bold;font-stretch:normal;font-size:3.14043px;font-family:monospace;-inkscape-font-specification:'monospace, Bold';font-variant-ligatures:normal;font-variant-caps:normal;font-variant-numeric:normal;font-variant-east-asian:normal;stroke-width:0.2"
         x="45.03738"
         y="8.9371433">{{username}}</tspan></text>
    <text
       xml:space="preserve"
       style="font-style:normal;font-variant:normal;font-weight:bold;font-stretch:normal;font-size:3.14043px;font-family:monospace;-inkscape-font-specification:'monospace, Bold';font-variant-ligatures:normal;font-variant-caps:normal;font-variant-numeric:normal;font-variant-east-asian:normal;fill:#000000;stroke:none;stroke-width:0.2;stroke-linecap:square;stroke-linejoin:round"
       x="45.009777"
       y="13.226964"
       id="text4877"><tspan
         sodipodi:role="line"
         id="tspan4875"
         style="stroke-width:0.2"
         x="45.009777"
         y="13.226964">{{dt.today().strftime('%d.%m.%Y')}}</tspan></text>
    <text
       xml:space="preserve"
       style="font-style:normal;font-variant:normal;font-weight:bold;font-stretch:normal;font-size:3.14043px;font-family:monospace;-inkscape-font-specification:'monospace, Bold';font-variant-ligatures:normal;font-variant-caps:normal;font-variant-numeric:normal;font-variant-east-asian:normal;fill:#000000;stroke:none;stroke-width:0.2;stroke-linecap:square;stroke-linejoin:round"
       x="45.057312"
       y="17.780531"
       id="text4885"><tspan
         sodipodi:role="line"
         id="tspan4883"
         style="stroke-width:0.2"
         x="45.057312"
         y="17.780531">{{dt.today().strftime('%T')}}</tspan></text>
    <text
       xml:space="preserve"
       style="font-style:normal;font-variant:normal;font-weight:bold;font-stretch:normal;font-size:3.14043px;font-family:monospace;-inkscape-font-specification:'monospace, Bold';font-variant-ligatures:normal;font-variant-caps:normal;font-variant-numeric:normal;font-variant-east-asian:normal;fill:#000000;stroke:none;stroke-width:0.2;stroke-linecap:square;stroke-linejoin:round"
       x="45.16925"
       y="22.334099"
       id="text4889"><tspan
         sodipodi:role="line"
         id="tspan4887"
         style="stroke-width:0.2"
         x="45.16925"
         y="22.334099">{{material_liste|length}}</tspan></text>
    <text
       xml:space="preserve"
       style="font-style:normal;font-variant:normal;font-weight:bold;font-stretch:normal;font-size:3.14043px;font-family:monospace;-inkscape-font-specification:'monospace, Bold';font-variant-ligatures:normal;font-variant-caps:normal;font-variant-numeric:normal;font-variant-east-asian:normal;fill:#000000;stroke:none;stroke-width:0.2;stroke-linecap:square;stroke-linejoin:round"
       x="45.16925"
       y="26.946785"
       id="text4893"><tspan
         sodipodi:role="line"
         id="tspan4891"
         style="stroke-width:0.2"
         x="45.16925"
         y="26.946785">{{(material_liste|length /35)|round(method='ceil')|int}}</tspan></text>
    <text
       xml:space="preserve"
       transform="matrix(0.26458333,0,0,0.26458333,-32.790131,-2.0465031)"
       id="text4907"
       style="font-style:normal;font-variant:normal;font-weight:bold;font-stretch:normal;font-size:12px;font-family:'Courier New';-inkscape-font-specification:'Courier New, Bold';font-variant-ligatures:normal;font-variant-caps:normal;font-variant-numeric:normal;font-variant-east-asian:normal;text-align:end;white-space:pre;shape-inside:url(#rect4909);display:inline;fill:#000000;stroke:none;stroke-width:0.755906;stroke-linecap:square;stroke-linejoin:round"><tspan
         x="689.95312"
         y="98.655421"
         id="tspan4704">{{org_name}}</tspan></text>
    <text
       xml:space="preserve"
       style="font-weight:bold;font-size:3.175px;font-family:'Courier New';-inkscape-font-specification:'Courier New, Bold';text-align:end;text-anchor:end;fill:#000000;stroke-width:0.2;stroke-linecap:square;stroke-linejoin:round"
       x="204.16522"
       y="16.871571"
       id="text515"><tspan
         sodipodi:role="line"
         id="tspan513"
         style="stroke-width:0.2"
         x="204.16522"
         y="16.871571" /></text>
    <text
       xml:space="preserve"
       transform="scale(0.26458333)"
       id="text517"
       style="font-weight:bold;font-size:12px;font-family:'Courier New';-inkscape-font-specification:'Courier New, Bold';text-align:end;white-space:pre;shape-inside:url(#rect519);display:inline;fill:#000000;stroke-width:0.755906;stroke-linecap:square;stroke-linejoin:round" />
    <text
       xml:space="preserve"
       transform="scale(0.26458333)"
       id="text523"
       style="font-weight:bold;font-size:12px;font-family:'Courier New';-inkscape-font-specification:'Courier New, Bold';text-align:end;white-space:pre;shape-inside:url(#rect525);display:inline;fill:#000000;stroke-width:0.755906;stroke-linecap:square;stroke-linejoin:round" />
    <text
       xml:space="preserve"
       transform="scale(0.26458333)"
       id="text529"
       style="font-weight:bold;font-size:12px;font-family:'Courier New';-inkscape-font-specification:'Courier New, Bold';text-align:end;white-space:pre;shape-inside:url(#rect531);display:inline;fill:#000000;stroke-width:0.755906;stroke-linecap:square;stroke-linejoin:round" />
    <text
       xml:space="preserve"
       transform="matrix(0.26458333,0,0,0.26458333,-29.554491,0.17668464)"
       id="text535"
       style="font-weight:bold;font-size:12px;font-family:'Courier New';-inkscape-font-specification:'Courier New, Bold';text-align:end;white-space:pre;shape-inside:url(#rect537);display:inline;fill:#000000;stroke-width:0.755906;stroke-linecap:square;stroke-linejoin:round"
       x="0"
       y="0"><tspan
         x="680.70703"
         y="68.700343"
         id="tspan4706">{{host_info}}</tspan></text>
  </g>
</svg>
