<?xml version="1.0" encoding="UTF-8" standalone="no"?>
<!-- Created with Inkscape (http://www.inkscape.org/) -->

<svg
   sodipodi:docname="sign_a4.svg"
   id="svg5"
   version="1.1"
   viewBox="0 0 297 210"
   height="210mm"
   width="297mm"
   inkscape:version="1.2.2 (b0a8486541, 2022-12-01)"
   xmlns:inkscape="http://www.inkscape.org/namespaces/inkscape"
   xmlns:sodipodi="http://sodipodi.sourceforge.net/DTD/sodipodi-0.dtd"
   xmlns="http://www.w3.org/2000/svg"
   xmlns:svg="http://www.w3.org/2000/svg">
  <sodipodi:namedview
     id="namedview7"
     pagecolor="#ffffff"
     bordercolor="#000000"
     borderopacity="0.25"
     inkscape:showpageshadow="2"
     inkscape:pageopacity="0.0"
     inkscape:pagecheckerboard="0"
     inkscape:deskcolor="#d1d1d1"
     inkscape:document-units="mm"
     showgrid="true"
     showguides="true"
     inkscape:zoom="0.70710678"
     inkscape:cx="559.32146"
     inkscape:cy="387.49451"
     inkscape:window-width="1920"
     inkscape:window-height="1021"
     inkscape:window-x="0"
     inkscape:window-y="30"
     inkscape:window-maximized="1"
     inkscape:current-layer="svg5">
    <sodipodi:guide
       position="148.48485,209.99999"
       orientation="1,0"
       id="guide1578"
       inkscape:locked="false" />
  </sodipodi:namedview>
  <defs
     id="defs2">
    <rect
       x="570.3432"
       y="58.17802"
       width="203.97906"
       height="16.584686"
       id="rect537" />
    <rect
       x="778.41217"
       y="57.674664"
       width="216.80389"
       height="14.036775"
       id="rect531" />
    <rect
       x="771.64807"
       y="63.766567"
       width="13.816351"
       height="16.24514"
       id="rect525" />
    <rect
       x="680.04846"
       y="67.370079"
       width="47.86039"
       height="12.572938"
       id="rect519" />
    <rect
       x="572.94196"
       y="88.132706"
       width="203.42522"
       height="26.370684"
       id="rect4909" />
    <rect
       x="570.3432"
       y="55.208809"
       width="208.06898"
       height="29.989359"
       id="rect4897" />
    <rect
       x="572.94196"
       y="88.132706"
       width="203.42522"
       height="26.370684"
       id="rect1574" />
    <rect
       x="570.3432"
       y="58.17802"
       width="203.97906"
       height="16.584686"
       id="rect1576" />
  </defs>
  <g
     inkscape:label="Ebene 1"
     inkscape:groupmode="layer"
     id="layer1"><text
   xml:space="preserve"
   style="font-size:25.9154px;font-family:Ani;-inkscape-font-specification:'Ani, Normal';fill:none;stroke:#000000;stroke-width:0.2;stroke-linecap:square;stroke-linejoin:round"
   x="7.9489813"
   y="8.6417913"
   id="text1204"><tspan
     sodipodi:role="line"
     id="tspan1202"
     style="stroke-width:0.2"
     x="7.9489813"
     y="8.6417913" /></text>
<text
   xml:space="preserve"
   style="font-style:normal;font-variant:normal;font-weight:normal;font-stretch:normal;font-size:8.11521px;font-family:Arvo;-inkscape-font-specification:'Arvo, Normal';font-variant-ligatures:normal;font-variant-caps:normal;font-variant-numeric:normal;font-variant-east-asian:normal;fill:#000000;stroke:none;stroke-width:0.2;stroke-linecap:square;stroke-linejoin:round"
   x="67.626167"
   y="40.838036"
   id="text1370"><tspan
     sodipodi:role="line"
     id="tspan1368"
     style="stroke-width:0.2"
     x="67.626167"
     y="40.838036" /></text>
<text
   xml:space="preserve"
   style="font-style:normal;font-variant:normal;font-weight:bold;font-stretch:normal;font-size:12.6889px;font-family:Arvo;-inkscape-font-specification:'Arvo, Bold';font-variant-ligatures:normal;font-variant-caps:normal;font-variant-numeric:normal;font-variant-east-asian:normal;fill:#000000;stroke:none;stroke-width:0.2;stroke-linecap:square;stroke-linejoin:round"
   x="6.28269"
   y="18.164621"
   id="text1426"><tspan
     sodipodi:role="line"
     id="tspan1424"
     style="fill:#000000;stroke-width:0.2"
     x="6.28269"
     y="18.164621" /></text>
<text
   xml:space="preserve"
   style="font-style:normal;font-variant:normal;font-weight:bold;font-stretch:normal;font-size:5.64444px;font-family:Arvo;-inkscape-font-specification:'Arvo, Bold';font-variant-ligatures:normal;font-variant-caps:normal;font-variant-numeric:normal;font-variant-east-asian:normal;fill:#000000;stroke:none;stroke-width:0.2;stroke-linecap:square;stroke-linejoin:round"
   x="22.89629"
   y="15.335424"
   id="text1480"><tspan
     sodipodi:role="line"
     id="tspan1482"
     x="22.89629"
     y="15.335424" /></text>
<g
   style="fill:#000000;stroke:none;stroke-width:1.52632"
   id="g2638"
   transform="matrix(0.17334749,0,0,0.17334749,-29.582677,49.734542)">
  <g
     inkscape:label="QR Code: kp0001;8er Jurte;schwarz"
     transform="matrix(1.1882706,0,0,1.1882706,483.49271,349.80382)"
     id="g3916"
     style="stroke-width:0.339854" />
</g>
<!-- ##################################### -->
<g
   id="g354{{loop.index}}" />


{% if reihe is gt(0)%}
       transform=&quot;translate({{48.455681*(loop.index-1)}}, {{25.947403*reihe}})&quot;
       {%elif loop.index is gt(1) %}
       transform=&quot;translate({{48.455681*(loop.index-1)}})&quot;
       {%endif%}&gt;
      </g>
  <!-- ####################################### -->
  <g
     inkscape:label="QR Code: m1;8er Jurte;schwarz"
     transform="matrix(0.1796316,0,0,0.1796316,112.88333,122.88095)"
     id="g4723"
     style="stroke-width:1.47292" />
  <text
     xml:space="preserve"
     style="font-weight:bold;font-size:3.175px;font-family:'Courier New';-inkscape-font-specification:'Courier New, Bold';text-align:end;text-anchor:end;fill:#000000;stroke-width:0.2;stroke-linecap:square;stroke-linejoin:round"
     x="204.16522"
     y="16.871571"
     id="text515"><tspan
       sodipodi:role="line"
       id="tspan513"
       style="stroke-width:0.2"
       x="204.16522"
       y="16.871571" /></text>
  <text
     xml:space="preserve"
     transform="scale(0.26458333)"
     id="text517"
     style="font-weight:bold;font-size:12px;font-family:'Courier New';-inkscape-font-specification:'Courier New, Bold';text-align:end;white-space:pre;shape-inside:url(#rect519);display:inline;fill:#000000;stroke-width:0.755906;stroke-linecap:square;stroke-linejoin:round" />
  <text
     xml:space="preserve"
     transform="scale(0.26458333)"
     id="text523"
     style="font-weight:bold;font-size:12px;font-family:'Courier New';-inkscape-font-specification:'Courier New, Bold';text-align:end;white-space:pre;shape-inside:url(#rect525);display:inline;fill:#000000;stroke-width:0.755906;stroke-linecap:square;stroke-linejoin:round" />
  <text
     xml:space="preserve"
     transform="scale(0.26458333)"
     id="text529"
     style="font-weight:bold;font-size:12px;font-family:'Courier New';-inkscape-font-specification:'Courier New, Bold';text-align:end;white-space:pre;shape-inside:url(#rect531);display:inline;fill:#000000;stroke-width:0.755906;stroke-linecap:square;stroke-linejoin:round" />
  <g
     id="g1230"
     transform="scale(0.70707071)">
    <path
       id="rect1284"
       style="fill:#ffffff;stroke-width:3.04599;stroke-linecap:square;stroke-linejoin:round"
       d="M 0,2.0000001e-6 H 210 V 297 H 0 Z" />
    <g
       style="fill:#000000;stroke:none;stroke-width:3.25031;stroke-dasharray:none"
       id="g3914"
       transform="matrix(0.93714163,0,0,0.93714163,31.528097,56.582551)">
      <path
         transform="scale(3.2)"
         class="qrline"
         stroke="#000000"
         d="m 4,4.5 h 7 m 1,0 h 6 m 2,0 h 3 m 3,0 h 1 m 2,0 h 1 m 2,0 h 2 m 4,0 h 7 m -41,1 h 1 m 5,0 h 1 m 6,0 h 2 m 3,0 h 3 m 3,0 h 2 m 2,0 h 1 m 1,0 h 3 m 1,0 h 1 m 5,0 h 1 m -41,1 h 1 m 1,0 h 3 m 1,0 h 1 m 2,0 h 5 m 1,0 h 2 m 1,0 h 2 m 1,0 h 1 m 3,0 h 3 m 2,0 h 3 m 1,0 h 1 m 1,0 h 3 m 1,0 h 1 m -41,1 h 1 m 1,0 h 3 m 1,0 h 1 m 3,0 h 2 m 1,0 h 2 m 1,0 h 3 m 1,0 h 3 m 1,0 h 2 m 2,0 h 1 m 2,0 h 2 m 1,0 h 1 m 1,0 h 3 m 1,0 h 1 m -41,1 h 1 m 1,0 h 3 m 1,0 h 1 m 3,0 h 1 m 1,0 h 1 m 1,0 h 1 m 2,0 h 5 m 2,0 h 3 m 1,0 h 5 m 1,0 h 1 m 1,0 h 3 m 1,0 h 1 m -41,1 h 1 m 5,0 h 1 m 3,0 h 1 m 1,0 h 2 m 2,0 h 2 m 5,0 h 3 m 3,0 h 1 m 4,0 h 1 m 5,0 h 1 m -41,1 h 7 m 1,0 h 1 m 1,0 h 1 m 1,0 h 1 m 1,0 h 1 m 1,0 h 1 m 1,0 h 1 m 1,0 h 1 m 1,0 h 1 m 1,0 h 1 m 1,0 h 1 m 1,0 h 1 m 1,0 h 1 m 1,0 h 1 m 1,0 h 7 m -33,1 h 2 m 1,0 h 1 m 1,0 h 2 m 4,0 h 2 m 1,0 h 2 m 1,0 h 4 m 1,0 h 2 m -32,1 h 2 m 1,0 h 2 m 1,0 h 1 m 2,0 h 2 m 1,0 h 1 m 2,0 h 3 m 1,0 h 1 m 1,0 h 3 m 3,0 h 3 m 1,0 h 1 m 2,0 h 1 m 5,0 h 1 m -41,1 h 1 m 4,0 h 1 m 2,0 h 2 m 1,0 h 2 m 2,0 h 2 m 2,0 h 2 m 1,0 h 2 m 1,0 h 3 m 2,0 h 2 m 1,0 h 1 m 2,0 h 2 m 1,0 h 1 m -40,1 h 2 m 1,0 h 2 m 1,0 h 5 m 1,0 h 1 m 1,0 h 2 m 1,0 h 2 m 2,0 h 1 m 1,0 h 2 m 2,0 h 2 m 1,0 h 1 m 3,0 h 4 m 1,0 h 1 m -40,1 h 2 m 3,0 h 1 m 1,0 h 4 m 4,0 h 4 m 1,0 h 1 m 1,0 h 1 m 1,0 h 1 m 4,0 h 2 m 1,0 h 1 m 3,0 h 2 m -37,1 h 2 m 1,0 h 4 m 2,0 h 1 m 1,0 h 1 m 1,0 h 1 m 1,0 h 1 m 1,0 h 3 m 1,0 h 3 m 6,0 h 1 m 1,0 h 3 m 3,0 h 2 m -41,1 h 2 m 2,0 h 1 m 2,0 h 2 m 4,0 h 3 m 2,0 h 1 m 1,0 h 2 m 1,0 h 1 m 1,0 h 4 m 1,0 h 1 m 3,0 h 5 m 1,0 h 1 m -41,1 h 4 m 2,0 h 1 m 1,0 h 2 m 1,0 h 9 m 2,0 h 1 m 2,0 h 1 m 1,0 h 1 m 3,0 h 1 m 1,0 h 3 m 4,0 h 1 m -41,1 h 3 m 1,0 h 2 m 1,0 h 1 m 2,0 h 2 m 4,0 h 1 m 1,0 h 1 m 1,0 h 1 m 1,0 h 1 m 1,0 h 1 m 1,0 h 2 m 3,0 h 2 m 1,0 h 2 m 2,0 h 1 m -34,1 h 2 m 2,0 h 2 m 2,0 h 4 m 3,0 h 3 m 2,0 h 2 m 3,0 h 1 m 1,0 h 2 m 3,0 h 1 m 2,0 h 1 m -40,1 h 2 m 4,0 h 3 m 2,0 h 1 m 2,0 h 3 m 1,0 h 2 m 4,0 h 3 m 1,0 h 4 m 3,0 h 2 m 1,0 h 1 m -39,1 h 2 m 1,0 h 1 m 1,0 h 2 m 1,0 h 1 m 1,0 h 13 m 1,0 h 1 m 1,0 h 1 m 1,0 h 6 m 2,0 h 4 m -40,1 h 2 m 1,0 h 1 m 7,0 h 3 m 1,0 h 1 m 1,0 h 2 m 5,0 h 2 m 5,0 h 1 m 5,0 h 1 m -38,1 h 1 m 1,0 h 5 m 1,0 h 1 m 5,0 h 5 m 2,0 h 1 m 1,0 h 1 m 2,0 h 3 m 2,0 h 1 m 1,0 h 1 m 2,0 h 4 m -39,1 h 2 m 3,0 h 1 m 1,0 h 1 m 2,0 h 5 m 1,0 h 3 m 1,0 h 2 m 1,0 h 3 m 1,0 h 3 m 1,0 h 4 m -37,1 h 1 m 1,0 h 1 m 3,0 h 1 m 2,0 h 3 m 1,0 h 1 m 1,0 h 1 m 2,0 h 1 m 1,0 h 2 m 1,0 h 1 m 2,0 h 2 m 6,0 h 2 m -35,1 h 3 m 1,0 h 1 m 1,0 h 1 m 3,0 h 2 m 3,0 h 2 m 5,0 h 1 m 4,0 h 2 m 2,0 h 1 m 3,0 h 1 m 2,0 h 1 m -38,1 h 10 m 2,0 h 2 m 3,0 h 3 m 5,0 h 2 m 1,0 h 2 m 1,0 h 3 m 3,0 h 1 m -40,1 h 5 m 2,0 h 1 m 2,0 h 4 m 1,0 h 2 m 5,0 h 2 m 1,0 h 4 m 2,0 h 1 m 1,0 h 4 m 3,0 h 1 m -39,1 h 1 m 1,0 h 1 m 1,0 h 1 m 3,0 h 1 m 1,0 h 2 m 1,0 h 2 m 1,0 h 5 m 1,0 h 2 m 1,0 h 2 m 2,0 h 4 m 2,0 h 4 m -40,1 h 1 m 2,0 h 2 m 2,0 h 2 m 1,0 h 2 m 1,0 h 1 m 3,0 h 2 m 2,0 h 3 m 1,0 h 2 m 2,0 h 2 m 3,0 h 1 m 1,0 h 2 m -36,1 h 4 m 1,0 h 2 m 1,0 h 4 m 3,0 h 3 m 3,0 h 3 m 1,0 h 1 m 2,0 h 2 m 3,0 h 2 m 1,0 h 1 m -40,1 h 1 m 1,0 h 3 m 3,0 h 1 m 1,0 h 2 m 3,0 h 5 m 2,0 h 1 m 6,0 h 4 m 3,0 h 1 m -37,1 h 2 m 3,0 h 2 m 2,0 h 1 m 2,0 h 6 m 1,0 h 2 m 1,0 h 4 m 1,0 h 1 m 1,0 h 7 m 1,0 h 1 m 2,0 h 1 m -41,1 h 3 m 7,0 h 2 m 1,0 h 1 m 4,0 h 3 m 4,0 h 1 m 2,0 h 1 m 3,0 h 2 m 3,0 h 2 m 1,0 h 1 m -41,1 h 3 m 1,0 h 5 m 1,0 h 2 m 3,0 h 3 m 1,0 h 1 m 2,0 h 1 m 1,0 h 1 m 1,0 h 1 m 1,0 h 9 m 1,0 h 3 m -33,1 h 1 m 1,0 h 3 m 2,0 h 1 m 2,0 h 2 m 2,0 h 1 m 2,0 h 1 m 4,0 h 1 m 1,0 h 1 m 3,0 h 1 m 1,0 h 2 m -40,1 h 7 m 4,0 h 2 m 1,0 h 2 m 1,0 h 2 m 2,0 h 1 m 1,0 h 2 m 1,0 h 2 m 1,0 h 1 m 1,0 h 2 m 1,0 h 1 m 1,0 h 1 m 1,0 h 2 m -40,1 h 1 m 5,0 h 1 m 2,0 h 2 m 6,0 h 3 m 2,0 h 3 m 2,0 h 3 m 2,0 h 1 m 3,0 h 2 m -38,1 h 1 m 1,0 h 3 m 1,0 h 1 m 1,0 h 1 m 3,0 h 3 m 1,0 h 1 m 1,0 h 3 m 1,0 h 3 m 3,0 h 1 m 2,0 h 6 m 2,0 h 2 m -41,1 h 1 m 1,0 h 3 m 1,0 h 1 m 1,0 h 3 m 1,0 h 4 m 2,0 h 1 m 1,0 h 2 m 1,0 h 1 m 1,0 h 3 m 1,0 h 3 m 5,0 h 1 m -38,1 h 1 m 1,0 h 3 m 1,0 h 1 m 2,0 h 1 m 2,0 h 1 m 2,0 h 2 m 2,0 h 1 m 1,0 h 1 m 5,0 h 3 m 1,0 h 2 m 2,0 h 3 m 1,0 h 1 m -40,1 h 1 m 5,0 h 1 m 1,0 h 3 m 1,0 h 1 m 1,0 h 1 m 1,0 h 1 m 3,0 h 1 m 3,0 h 1 m 1,0 h 2 m 5,0 h 1 m 1,0 h 2 m 1,0 h 1 m 1,0 h 1 m -41,1 h 7 m 1,0 h 2 m 1,0 h 5 m 4,0 h 7 m 2,0 h 4 m 1,0 h 1 m 1,0 h 1 m 1,0 h 1"
         id="path36"
         style="stroke-width:1.01572;stroke-dasharray:none" />
    </g>
    <text
       xml:space="preserve"
       style="font-style:normal;font-variant:normal;font-weight:bold;font-stretch:normal;font-size:4.60392px;font-family:'Courier New';-inkscape-font-specification:'Courier New, Bold';font-variant-ligatures:normal;font-variant-caps:normal;font-variant-numeric:normal;font-variant-east-asian:normal;fill:#000000;stroke:none;stroke-width:0.2;stroke-linecap:square;stroke-linejoin:round"
       x="105.00562"
       y="287.51514"
       id="text3831"><tspan
         sodipodi:role="line"
         id="tspan3829"
         style="text-align:center;text-anchor:middle;stroke-width:0.2"
         x="105.00562"
         y="287.51514">{{org_name}}</tspan></text>
    <g
       id="g1134">
      <text
         xml:space="preserve"
         style="font-style:normal;font-variant:normal;font-weight:bold;font-stretch:normal;font-size:8.18474px;font-family:monospace;-inkscape-font-specification:'monospace, Bold';font-variant-ligatures:normal;font-variant-caps:normal;font-variant-numeric:normal;font-variant-east-asian:normal;word-spacing:0px;fill:none;stroke:#000000;stroke-width:0.2;stroke-linecap:square;stroke-linejoin:round"
         x="105.009"
         y="217.68886"
         id="text2815"><tspan
           sodipodi:role="line"
           style="font-style:normal;font-variant:normal;font-weight:bold;font-stretch:normal;font-size:4.60392px;font-family:Arial;-inkscape-font-specification:'Arial, Bold';font-variant-ligatures:normal;font-variant-caps:normal;font-variant-numeric:normal;font-variant-east-asian:normal;text-align:center;text-anchor:middle;fill:#000000;stroke:none;stroke-width:0.2"
           x="105.009"
           y="217.68886"
           id="tspan2817" /><tspan
           sodipodi:role="line"
           style="font-style:normal;font-variant:normal;font-weight:bold;font-stretch:normal;font-size:4.60392px;font-family:Arial;-inkscape-font-specification:'Arial, Bold';font-variant-ligatures:normal;font-variant-caps:normal;font-variant-numeric:normal;font-variant-east-asian:normal;text-align:center;text-anchor:middle;fill:#000000;stroke:none;stroke-width:0.2"
           x="105.009"
           y="227.91978"
           id="tspan508" /><tspan
           sodipodi:role="line"
           style="font-style:normal;font-variant:normal;font-weight:bold;font-stretch:normal;font-size:4.60392px;font-family:Arial;-inkscape-font-specification:'Arial, Bold';font-variant-ligatures:normal;font-variant-caps:normal;font-variant-numeric:normal;font-variant-east-asian:normal;text-align:center;text-anchor:middle;fill:#000000;stroke:none;stroke-width:0.2"
           x="105.009"
           y="238.15071"
           rotate="0 0 0 0 0 0 0 0"
           dy="-2.4650922 0 0 0 0"
           id="tspan504">{{m.Eigenschaften.get(&quot;farbe&quot;, &quot;&quot;)}}</tspan><tspan
           sodipodi:role="line"
           style="font-style:normal;font-variant:normal;font-weight:bold;font-stretch:normal;font-size:4.60392px;font-family:Arial;-inkscape-font-specification:'Arial, Bold';font-variant-ligatures:normal;font-variant-caps:normal;font-variant-numeric:normal;font-variant-east-asian:normal;text-align:center;text-anchor:middle;fill:#000000;stroke:none;stroke-width:0.2"
           x="105.009"
           y="248.38164"
           id="tspan2819" /></text>
      <text
         xml:space="preserve"
         style="font-weight:bold;font-size:19.7556px;font-family:'Courier New';-inkscape-font-specification:'Courier New, Bold';text-align:center;text-anchor:middle;fill:#ffffff;stroke-width:3.04599;stroke-linecap:square;stroke-linejoin:round;stroke-dasharray:none"
         x="105.65595"
         y="214.6218"
         id="text1017"><tspan
           sodipodi:role="line"
           id="tspan1015"
           style="font-style:normal;font-variant:normal;font-weight:bold;font-stretch:normal;font-size:19.7556px;font-family:Arial;-inkscape-font-specification:'Arial, Bold';font-variant-ligatures:normal;font-variant-caps:normal;font-variant-numeric:normal;font-variant-east-asian:normal;text-align:center;text-anchor:middle;fill:#000000;stroke-width:3.046"
           x="105.65595"
           y="214.6218">{{m.name}}</tspan></text>
      <text
         xml:space="preserve"
         style="font-style:normal;font-variant:normal;font-weight:bold;font-stretch:normal;font-size:6.35px;font-family:Arial;-inkscape-font-specification:'Arial, Bold';font-variant-ligatures:normal;font-variant-caps:normal;font-variant-numeric:normal;font-variant-east-asian:normal;text-align:end;text-anchor:end;fill:#000000;stroke-width:3.04599;stroke-linecap:square;stroke-linejoin:round;stroke-dasharray:none"
         x="105.34261"
         y="226.08658"
         id="text1123"><tspan
           sodipodi:role="line"
           id="tspan1121"
           style="font-style:normal;font-variant:normal;font-weight:bold;font-stretch:normal;font-size:6.35px;font-family:'Courier New';-inkscape-font-specification:'Courier New, Bold';font-variant-ligatures:normal;font-variant-caps:normal;font-variant-numeric:normal;font-variant-east-asian:normal;text-align:center;text-anchor:middle;stroke-width:3.046"
           x="105.34261"
           y="226.08658">id:{{&quot;%04d&quot;|format(m.idMaterial)}}</tspan></text>
    </g>
    <g
       id="g1179">
      <rect
         style="fill:none;stroke:#000000;stroke-width:0.165756;stroke-linecap:square;stroke-linejoin:round"
         id="rect539"
         width="203.15608"
         height="54.847614"
         x="3.4219604"
         y="5.4693303"
         rx="0"
         ry="0" />
      <text
         xml:space="preserve"
         style="font-style:normal;font-variant:normal;font-weight:bold;font-stretch:normal;font-size:12.8055px;font-family:Arvo;-inkscape-font-specification:'Arvo, Bold';font-variant-ligatures:normal;font-variant-caps:normal;font-variant-numeric:normal;font-variant-east-asian:normal;text-align:center;text-anchor:middle;fill:#000000;stroke:none;stroke-width:0.2;stroke-linecap:square;stroke-linejoin:round"
         x="105.05627"
         y="22.844849"
         id="text1208"><tspan
           sodipodi:role="line"
           id="tspan1206"
           style="font-style:normal;font-variant:normal;font-weight:bold;font-stretch:normal;font-size:12.8055px;font-family:Arvo;-inkscape-font-specification:'Arvo, Bold';font-variant-ligatures:normal;font-variant-caps:normal;font-variant-numeric:normal;font-variant-east-asian:normal;text-align:center;text-anchor:middle;fill:#000000;stroke:none;stroke-width:0.2"
           x="105.05627"
           y="22.844849">knotnpunkt</tspan></text>
      <g
         id="g1154">
        <text
           xml:space="preserve"
           style="font-style:normal;font-variant:normal;font-weight:bold;font-stretch:normal;font-size:4.55379px;font-family:Arvo;-inkscape-font-specification:'Arvo, Bold';font-variant-ligatures:normal;font-variant-caps:normal;font-variant-numeric:normal;font-variant-east-asian:normal;fill:#000000;stroke:none;stroke-width:0.2;stroke-linecap:square;stroke-linejoin:round"
           x="77.905907"
           y="44.281384"
           id="text1486"><tspan
             sodipodi:role="line"
             id="tspan1484"
             style="font-style:normal;font-variant:normal;font-weight:bold;font-stretch:normal;font-size:4.55379px;font-family:monospace;-inkscape-font-specification:'monospace, Bold';font-variant-ligatures:normal;font-variant-caps:normal;font-variant-numeric:normal;font-variant-east-asian:normal;stroke-width:0.2"
             x="77.905907"
             y="44.281384">Nutzer:</tspan></text>
        <text
           xml:space="preserve"
           style="font-style:normal;font-variant:normal;font-weight:bold;font-stretch:normal;font-size:4.55379px;font-family:monospace;-inkscape-font-specification:'monospace, Bold';font-variant-ligatures:normal;font-variant-caps:normal;font-variant-numeric:normal;font-variant-east-asian:normal;fill:#000000;stroke:none;stroke-width:0.2;stroke-linecap:square;stroke-linejoin:round"
           x="77.905907"
           y="50.501865"
           id="text1490"><tspan
             sodipodi:role="line"
             id="tspan1488"
             style="stroke-width:0.2"
             x="77.905907"
             y="50.501865">Datum:</tspan></text>
        <text
           xml:space="preserve"
           style="font-style:normal;font-variant:normal;font-weight:bold;font-stretch:normal;font-size:4.55379px;font-family:monospace;-inkscape-font-specification:'monospace, Bold';font-variant-ligatures:normal;font-variant-caps:normal;font-variant-numeric:normal;font-variant-east-asian:normal;fill:#000000;stroke:none;stroke-width:0.2;stroke-linecap:square;stroke-linejoin:round"
           x="77.670212"
           y="57.104794"
           id="text1494"><tspan
             sodipodi:role="line"
             id="tspan1492"
             style="stroke-width:0.2"
             x="77.670212"
             y="57.104794">Uhrzeit:</tspan></text>
        <text
           xml:space="preserve"
           style="font-style:normal;font-variant:normal;font-weight:bold;font-stretch:normal;font-size:4.55379px;font-family:Arvo;-inkscape-font-specification:'Arvo, Bold';font-variant-ligatures:normal;font-variant-caps:normal;font-variant-numeric:normal;font-variant-east-asian:normal;fill:#000000;stroke:none;stroke-width:0.2;stroke-linecap:square;stroke-linejoin:round"
           x="101.74968"
           y="43.74617"
           id="text4873"><tspan
             sodipodi:role="line"
             id="tspan4871"
             style="font-style:normal;font-variant:normal;font-weight:bold;font-stretch:normal;font-size:4.55379px;font-family:monospace;-inkscape-font-specification:'monospace, Bold';font-variant-ligatures:normal;font-variant-caps:normal;font-variant-numeric:normal;font-variant-east-asian:normal;stroke-width:0.2"
             x="101.74968"
             y="43.74617">{{username}}</tspan></text>
        <text
           xml:space="preserve"
           style="font-style:normal;font-variant:normal;font-weight:bold;font-stretch:normal;font-size:4.55379px;font-family:monospace;-inkscape-font-specification:'monospace, Bold';font-variant-ligatures:normal;font-variant-caps:normal;font-variant-numeric:normal;font-variant-east-asian:normal;fill:#000000;stroke:none;stroke-width:0.2;stroke-linecap:square;stroke-linejoin:round"
           x="101.70966"
           y="50.097607"
           id="text4877"><tspan
             sodipodi:role="line"
             id="tspan4875"
             style="stroke-width:0.2"
             x="101.70966"
             y="50.097607">{{dt.today().strftime('%d.%m.%Y')}}</tspan></text>
        <text
           xml:space="preserve"
           style="font-style:normal;font-variant:normal;font-weight:bold;font-stretch:normal;font-size:4.55379px;font-family:monospace;-inkscape-font-specification:'monospace, Bold';font-variant-ligatures:normal;font-variant-caps:normal;font-variant-numeric:normal;font-variant-east-asian:normal;fill:#000000;stroke:none;stroke-width:0.2;stroke-linecap:square;stroke-linejoin:round"
           x="101.74211"
           y="57.104794"
           id="text4885"><tspan
             sodipodi:role="line"
             id="tspan4883"
             style="stroke-width:0.2"
             x="101.74211"
             y="57.104794">{{dt.today().strftime('%T')}}</tspan></text>
      </g>
      <text
         xml:space="preserve"
         transform="matrix(0.38366017,0,0,0.38366017,-153.83236,-4.7614762)"
         id="text4907"
         style="font-style:normal;font-variant:normal;font-weight:bold;font-stretch:normal;font-size:12px;font-family:'Courier New';-inkscape-font-specification:'Courier New, Bold';font-variant-ligatures:normal;font-variant-caps:normal;font-variant-numeric:normal;font-variant-east-asian:normal;text-align:center;white-space:pre;shape-inside:url(#rect4909);display:inline;fill:#000000;stroke:none;stroke-width:0.521295;stroke-linecap:square;stroke-linejoin:round"
         x="-41.176758"
         y="0"><tspan
           x="631.44727"
           y="98.655421"
           id="tspan1684">{{org_name}}</tspan></text>
      <text
         xml:space="preserve"
         transform="matrix(0.38366017,0,0,0.38366017,-152.94178,-16.093971)"
         id="text535"
         style="font-weight:bold;font-size:12px;font-family:'Courier New';-inkscape-font-specification:'Courier New, Bold';text-align:center;white-space:pre;shape-inside:url(#rect537);display:inline;fill:#000000;stroke-width:0.521295;stroke-linecap:square;stroke-linejoin:round"
         x="-44.777344"
         y="0"><tspan
           x="625.52539"
           y="68.700343"
           id="tspan1686">{{host_info}}</tspan></text>
    </g>
  </g>
  <g
     id="g1572"
     transform="matrix(0.70707071,0,0,0.70707071,148.48485,0)">
    <path
       id="path1500"
       style="fill:#ffffff;stroke-width:3.04599;stroke-linecap:square;stroke-linejoin:round"
       d="M 0,2.0000001e-6 H 210 V 297 H 0 Z" />
    <g
       style="fill:#000000;stroke:none;stroke-width:3.25031;stroke-dasharray:none"
       id="g1504"
       transform="matrix(0.93714163,0,0,0.93714163,31.528097,56.582551)">
      <path
         transform="scale(3.2)"
         class="qrline"
         stroke="#000000"
         d="m 4,4.5 h 7 m 1,0 h 6 m 2,0 h 3 m 3,0 h 1 m 2,0 h 1 m 2,0 h 2 m 4,0 h 7 m -41,1 h 1 m 5,0 h 1 m 6,0 h 2 m 3,0 h 3 m 3,0 h 2 m 2,0 h 1 m 1,0 h 3 m 1,0 h 1 m 5,0 h 1 m -41,1 h 1 m 1,0 h 3 m 1,0 h 1 m 2,0 h 5 m 1,0 h 2 m 1,0 h 2 m 1,0 h 1 m 3,0 h 3 m 2,0 h 3 m 1,0 h 1 m 1,0 h 3 m 1,0 h 1 m -41,1 h 1 m 1,0 h 3 m 1,0 h 1 m 3,0 h 2 m 1,0 h 2 m 1,0 h 3 m 1,0 h 3 m 1,0 h 2 m 2,0 h 1 m 2,0 h 2 m 1,0 h 1 m 1,0 h 3 m 1,0 h 1 m -41,1 h 1 m 1,0 h 3 m 1,0 h 1 m 3,0 h 1 m 1,0 h 1 m 1,0 h 1 m 2,0 h 5 m 2,0 h 3 m 1,0 h 5 m 1,0 h 1 m 1,0 h 3 m 1,0 h 1 m -41,1 h 1 m 5,0 h 1 m 3,0 h 1 m 1,0 h 2 m 2,0 h 2 m 5,0 h 3 m 3,0 h 1 m 4,0 h 1 m 5,0 h 1 m -41,1 h 7 m 1,0 h 1 m 1,0 h 1 m 1,0 h 1 m 1,0 h 1 m 1,0 h 1 m 1,0 h 1 m 1,0 h 1 m 1,0 h 1 m 1,0 h 1 m 1,0 h 1 m 1,0 h 1 m 1,0 h 1 m 1,0 h 1 m 1,0 h 7 m -33,1 h 2 m 1,0 h 1 m 1,0 h 2 m 4,0 h 2 m 1,0 h 2 m 1,0 h 4 m 1,0 h 2 m -32,1 h 2 m 1,0 h 2 m 1,0 h 1 m 2,0 h 2 m 1,0 h 1 m 2,0 h 3 m 1,0 h 1 m 1,0 h 3 m 3,0 h 3 m 1,0 h 1 m 2,0 h 1 m 5,0 h 1 m -41,1 h 1 m 4,0 h 1 m 2,0 h 2 m 1,0 h 2 m 2,0 h 2 m 2,0 h 2 m 1,0 h 2 m 1,0 h 3 m 2,0 h 2 m 1,0 h 1 m 2,0 h 2 m 1,0 h 1 m -40,1 h 2 m 1,0 h 2 m 1,0 h 5 m 1,0 h 1 m 1,0 h 2 m 1,0 h 2 m 2,0 h 1 m 1,0 h 2 m 2,0 h 2 m 1,0 h 1 m 3,0 h 4 m 1,0 h 1 m -40,1 h 2 m 3,0 h 1 m 1,0 h 4 m 4,0 h 4 m 1,0 h 1 m 1,0 h 1 m 1,0 h 1 m 4,0 h 2 m 1,0 h 1 m 3,0 h 2 m -37,1 h 2 m 1,0 h 4 m 2,0 h 1 m 1,0 h 1 m 1,0 h 1 m 1,0 h 1 m 1,0 h 3 m 1,0 h 3 m 6,0 h 1 m 1,0 h 3 m 3,0 h 2 m -41,1 h 2 m 2,0 h 1 m 2,0 h 2 m 4,0 h 3 m 2,0 h 1 m 1,0 h 2 m 1,0 h 1 m 1,0 h 4 m 1,0 h 1 m 3,0 h 5 m 1,0 h 1 m -41,1 h 4 m 2,0 h 1 m 1,0 h 2 m 1,0 h 9 m 2,0 h 1 m 2,0 h 1 m 1,0 h 1 m 3,0 h 1 m 1,0 h 3 m 4,0 h 1 m -41,1 h 3 m 1,0 h 2 m 1,0 h 1 m 2,0 h 2 m 4,0 h 1 m 1,0 h 1 m 1,0 h 1 m 1,0 h 1 m 1,0 h 1 m 1,0 h 2 m 3,0 h 2 m 1,0 h 2 m 2,0 h 1 m -34,1 h 2 m 2,0 h 2 m 2,0 h 4 m 3,0 h 3 m 2,0 h 2 m 3,0 h 1 m 1,0 h 2 m 3,0 h 1 m 2,0 h 1 m -40,1 h 2 m 4,0 h 3 m 2,0 h 1 m 2,0 h 3 m 1,0 h 2 m 4,0 h 3 m 1,0 h 4 m 3,0 h 2 m 1,0 h 1 m -39,1 h 2 m 1,0 h 1 m 1,0 h 2 m 1,0 h 1 m 1,0 h 13 m 1,0 h 1 m 1,0 h 1 m 1,0 h 6 m 2,0 h 4 m -40,1 h 2 m 1,0 h 1 m 7,0 h 3 m 1,0 h 1 m 1,0 h 2 m 5,0 h 2 m 5,0 h 1 m 5,0 h 1 m -38,1 h 1 m 1,0 h 5 m 1,0 h 1 m 5,0 h 5 m 2,0 h 1 m 1,0 h 1 m 2,0 h 3 m 2,0 h 1 m 1,0 h 1 m 2,0 h 4 m -39,1 h 2 m 3,0 h 1 m 1,0 h 1 m 2,0 h 5 m 1,0 h 3 m 1,0 h 2 m 1,0 h 3 m 1,0 h 3 m 1,0 h 4 m -37,1 h 1 m 1,0 h 1 m 3,0 h 1 m 2,0 h 3 m 1,0 h 1 m 1,0 h 1 m 2,0 h 1 m 1,0 h 2 m 1,0 h 1 m 2,0 h 2 m 6,0 h 2 m -35,1 h 3 m 1,0 h 1 m 1,0 h 1 m 3,0 h 2 m 3,0 h 2 m 5,0 h 1 m 4,0 h 2 m 2,0 h 1 m 3,0 h 1 m 2,0 h 1 m -38,1 h 10 m 2,0 h 2 m 3,0 h 3 m 5,0 h 2 m 1,0 h 2 m 1,0 h 3 m 3,0 h 1 m -40,1 h 5 m 2,0 h 1 m 2,0 h 4 m 1,0 h 2 m 5,0 h 2 m 1,0 h 4 m 2,0 h 1 m 1,0 h 4 m 3,0 h 1 m -39,1 h 1 m 1,0 h 1 m 1,0 h 1 m 3,0 h 1 m 1,0 h 2 m 1,0 h 2 m 1,0 h 5 m 1,0 h 2 m 1,0 h 2 m 2,0 h 4 m 2,0 h 4 m -40,1 h 1 m 2,0 h 2 m 2,0 h 2 m 1,0 h 2 m 1,0 h 1 m 3,0 h 2 m 2,0 h 3 m 1,0 h 2 m 2,0 h 2 m 3,0 h 1 m 1,0 h 2 m -36,1 h 4 m 1,0 h 2 m 1,0 h 4 m 3,0 h 3 m 3,0 h 3 m 1,0 h 1 m 2,0 h 2 m 3,0 h 2 m 1,0 h 1 m -40,1 h 1 m 1,0 h 3 m 3,0 h 1 m 1,0 h 2 m 3,0 h 5 m 2,0 h 1 m 6,0 h 4 m 3,0 h 1 m -37,1 h 2 m 3,0 h 2 m 2,0 h 1 m 2,0 h 6 m 1,0 h 2 m 1,0 h 4 m 1,0 h 1 m 1,0 h 7 m 1,0 h 1 m 2,0 h 1 m -41,1 h 3 m 7,0 h 2 m 1,0 h 1 m 4,0 h 3 m 4,0 h 1 m 2,0 h 1 m 3,0 h 2 m 3,0 h 2 m 1,0 h 1 m -41,1 h 3 m 1,0 h 5 m 1,0 h 2 m 3,0 h 3 m 1,0 h 1 m 2,0 h 1 m 1,0 h 1 m 1,0 h 1 m 1,0 h 9 m 1,0 h 3 m -33,1 h 1 m 1,0 h 3 m 2,0 h 1 m 2,0 h 2 m 2,0 h 1 m 2,0 h 1 m 4,0 h 1 m 1,0 h 1 m 3,0 h 1 m 1,0 h 2 m -40,1 h 7 m 4,0 h 2 m 1,0 h 2 m 1,0 h 2 m 2,0 h 1 m 1,0 h 2 m 1,0 h 2 m 1,0 h 1 m 1,0 h 2 m 1,0 h 1 m 1,0 h 1 m 1,0 h 2 m -40,1 h 1 m 5,0 h 1 m 2,0 h 2 m 6,0 h 3 m 2,0 h 3 m 2,0 h 3 m 2,0 h 1 m 3,0 h 2 m -38,1 h 1 m 1,0 h 3 m 1,0 h 1 m 1,0 h 1 m 3,0 h 3 m 1,0 h 1 m 1,0 h 3 m 1,0 h 3 m 3,0 h 1 m 2,0 h 6 m 2,0 h 2 m -41,1 h 1 m 1,0 h 3 m 1,0 h 1 m 1,0 h 3 m 1,0 h 4 m 2,0 h 1 m 1,0 h 2 m 1,0 h 1 m 1,0 h 3 m 1,0 h 3 m 5,0 h 1 m -38,1 h 1 m 1,0 h 3 m 1,0 h 1 m 2,0 h 1 m 2,0 h 1 m 2,0 h 2 m 2,0 h 1 m 1,0 h 1 m 5,0 h 3 m 1,0 h 2 m 2,0 h 3 m 1,0 h 1 m -40,1 h 1 m 5,0 h 1 m 1,0 h 3 m 1,0 h 1 m 1,0 h 1 m 1,0 h 1 m 3,0 h 1 m 3,0 h 1 m 1,0 h 2 m 5,0 h 1 m 1,0 h 2 m 1,0 h 1 m 1,0 h 1 m -41,1 h 7 m 1,0 h 2 m 1,0 h 5 m 4,0 h 7 m 2,0 h 4 m 1,0 h 1 m 1,0 h 1 m 1,0 h 1"
         id="path1502"
         style="stroke-width:1.01572;stroke-dasharray:none" />
    </g>
    <text
       xml:space="preserve"
       style="font-style:normal;font-variant:normal;font-weight:bold;font-stretch:normal;font-size:4.60392px;font-family:'Courier New';-inkscape-font-specification:'Courier New, Bold';font-variant-ligatures:normal;font-variant-caps:normal;font-variant-numeric:normal;font-variant-east-asian:normal;fill:#000000;stroke:none;stroke-width:0.2;stroke-linecap:square;stroke-linejoin:round"
       x="105.00562"
       y="287.51514"
       id="text1508"><tspan
         sodipodi:role="line"
         id="tspan1506"
         style="text-align:center;text-anchor:middle;stroke-width:0.2"
         x="105.00562"
         y="287.51514">{{org_name}}</tspan></text>
    <g
       id="g1528">
      <text
         xml:space="preserve"
         style="font-style:normal;font-variant:normal;font-weight:bold;font-stretch:normal;font-size:8.18474px;font-family:monospace;-inkscape-font-specification:'monospace, Bold';font-variant-ligatures:normal;font-variant-caps:normal;font-variant-numeric:normal;font-variant-east-asian:normal;word-spacing:0px;fill:none;stroke:#000000;stroke-width:0.2;stroke-linecap:square;stroke-linejoin:round"
         x="105.009"
         y="217.68886"
         id="text1518"><tspan
           sodipodi:role="line"
           style="font-style:normal;font-variant:normal;font-weight:bold;font-stretch:normal;font-size:4.60392px;font-family:Arial;-inkscape-font-specification:'Arial, Bold';font-variant-ligatures:normal;font-variant-caps:normal;font-variant-numeric:normal;font-variant-east-asian:normal;text-align:center;text-anchor:middle;fill:#000000;stroke:none;stroke-width:0.2"
           x="105.009"
           y="217.68886"
           id="tspan1510" /><tspan
           sodipodi:role="line"
           style="font-style:normal;font-variant:normal;font-weight:bold;font-stretch:normal;font-size:4.60392px;font-family:Arial;-inkscape-font-specification:'Arial, Bold';font-variant-ligatures:normal;font-variant-caps:normal;font-variant-numeric:normal;font-variant-east-asian:normal;text-align:center;text-anchor:middle;fill:#000000;stroke:none;stroke-width:0.2"
           x="105.009"
           y="227.91978"
           id="tspan1512" /><tspan
           sodipodi:role="line"
           style="font-style:normal;font-variant:normal;font-weight:bold;font-stretch:normal;font-size:4.60392px;font-family:Arial;-inkscape-font-specification:'Arial, Bold';font-variant-ligatures:normal;font-variant-caps:normal;font-variant-numeric:normal;font-variant-east-asian:normal;text-align:center;text-anchor:middle;fill:#000000;stroke:none;stroke-width:0.2"
           x="105.009"
           y="238.15071"
           rotate="0 0 0 0 0 0 0 0"
           dy="-2.4650922 0 0 0 0"
           id="tspan1514">{{m.Eigenschaften.get(&quot;farbe&quot;, &quot;&quot;)}}</tspan><tspan
           sodipodi:role="line"
           style="font-style:normal;font-variant:normal;font-weight:bold;font-stretch:normal;font-size:4.60392px;font-family:Arial;-inkscape-font-specification:'Arial, Bold';font-variant-ligatures:normal;font-variant-caps:normal;font-variant-numeric:normal;font-variant-east-asian:normal;text-align:center;text-anchor:middle;fill:#000000;stroke:none;stroke-width:0.2"
           x="105.009"
           y="248.38164"
           id="tspan1516" /></text>
      <text
         xml:space="preserve"
         style="font-weight:bold;font-size:19.7556px;font-family:'Courier New';-inkscape-font-specification:'Courier New, Bold';text-align:center;text-anchor:middle;fill:#ffffff;stroke-width:3.04599;stroke-linecap:square;stroke-linejoin:round;stroke-dasharray:none"
         x="105.65595"
         y="214.6218"
         id="text1522"><tspan
           sodipodi:role="line"
           id="tspan1520"
           style="font-style:normal;font-variant:normal;font-weight:bold;font-stretch:normal;font-size:19.7556px;font-family:Arial;-inkscape-font-specification:'Arial, Bold';font-variant-ligatures:normal;font-variant-caps:normal;font-variant-numeric:normal;font-variant-east-asian:normal;text-align:center;text-anchor:middle;fill:#000000;stroke-width:3.046"
           x="105.65595"
           y="214.6218">{{m.name}}</tspan></text>
      <text
         xml:space="preserve"
         style="font-style:normal;font-variant:normal;font-weight:bold;font-stretch:normal;font-size:6.35px;font-family:Arial;-inkscape-font-specification:'Arial, Bold';font-variant-ligatures:normal;font-variant-caps:normal;font-variant-numeric:normal;font-variant-east-asian:normal;text-align:end;text-anchor:end;fill:#000000;stroke-width:3.04599;stroke-linecap:square;stroke-linejoin:round;stroke-dasharray:none"
         x="105.34261"
         y="226.08658"
         id="text1526"><tspan
           sodipodi:role="line"
           id="tspan1524"
           style="font-style:normal;font-variant:normal;font-weight:bold;font-stretch:normal;font-size:6.35px;font-family:'Courier New';-inkscape-font-specification:'Courier New, Bold';font-variant-ligatures:normal;font-variant-caps:normal;font-variant-numeric:normal;font-variant-east-asian:normal;text-align:center;text-anchor:middle;stroke-width:3.046"
           x="105.34261"
           y="226.08658">id:{{&quot;%04d&quot;|format(m.idMaterial)}}</tspan></text>
    </g>
    <g
       id="g1570">
      <rect
         style="fill:none;stroke:#000000;stroke-width:0.165756;stroke-linecap:square;stroke-linejoin:round"
         id="rect1530"
         width="203.15608"
         height="54.847614"
         x="3.4219604"
         y="5.4693303"
         rx="0"
         ry="0" />
      <text
         xml:space="preserve"
         style="font-style:normal;font-variant:normal;font-weight:bold;font-stretch:normal;font-size:12.8055px;font-family:Arvo;-inkscape-font-specification:'Arvo, Bold';font-variant-ligatures:normal;font-variant-caps:normal;font-variant-numeric:normal;font-variant-east-asian:normal;text-align:center;text-anchor:middle;fill:#000000;stroke:none;stroke-width:0.2;stroke-linecap:square;stroke-linejoin:round"
         x="105.05627"
         y="22.844849"
         id="text1534"><tspan
           sodipodi:role="line"
           id="tspan1532"
           style="font-style:normal;font-variant:normal;font-weight:bold;font-stretch:normal;font-size:12.8055px;font-family:Arvo;-inkscape-font-specification:'Arvo, Bold';font-variant-ligatures:normal;font-variant-caps:normal;font-variant-numeric:normal;font-variant-east-asian:normal;text-align:center;text-anchor:middle;fill:#000000;stroke:none;stroke-width:0.2"
           x="105.05627"
           y="22.844849">knotnpunkt</tspan></text>
      <g
         id="g1560">
        <text
           xml:space="preserve"
           style="font-style:normal;font-variant:normal;font-weight:bold;font-stretch:normal;font-size:4.55379px;font-family:Arvo;-inkscape-font-specification:'Arvo, Bold';font-variant-ligatures:normal;font-variant-caps:normal;font-variant-numeric:normal;font-variant-east-asian:normal;fill:#000000;stroke:none;stroke-width:0.2;stroke-linecap:square;stroke-linejoin:round"
           x="77.905907"
           y="44.281384"
           id="text1538"><tspan
             sodipodi:role="line"
             id="tspan1536"
             style="font-style:normal;font-variant:normal;font-weight:bold;font-stretch:normal;font-size:4.55379px;font-family:monospace;-inkscape-font-specification:'monospace, Bold';font-variant-ligatures:normal;font-variant-caps:normal;font-variant-numeric:normal;font-variant-east-asian:normal;stroke-width:0.2"
             x="77.905907"
             y="44.281384">Nutzer:</tspan></text>
        <text
           xml:space="preserve"
           style="font-style:normal;font-variant:normal;font-weight:bold;font-stretch:normal;font-size:4.55379px;font-family:monospace;-inkscape-font-specification:'monospace, Bold';font-variant-ligatures:normal;font-variant-caps:normal;font-variant-numeric:normal;font-variant-east-asian:normal;fill:#000000;stroke:none;stroke-width:0.2;stroke-linecap:square;stroke-linejoin:round"
           x="77.905907"
           y="50.501865"
           id="text1542"><tspan
             sodipodi:role="line"
             id="tspan1540"
             style="stroke-width:0.2"
             x="77.905907"
             y="50.501865">Datum:</tspan></text>
        <text
           xml:space="preserve"
           style="font-style:normal;font-variant:normal;font-weight:bold;font-stretch:normal;font-size:4.55379px;font-family:monospace;-inkscape-font-specification:'monospace, Bold';font-variant-ligatures:normal;font-variant-caps:normal;font-variant-numeric:normal;font-variant-east-asian:normal;fill:#000000;stroke:none;stroke-width:0.2;stroke-linecap:square;stroke-linejoin:round"
           x="77.670212"
           y="57.104794"
           id="text1546"><tspan
             sodipodi:role="line"
             id="tspan1544"
             style="stroke-width:0.2"
             x="77.670212"
             y="57.104794">Uhrzeit:</tspan></text>
        <text
           xml:space="preserve"
           style="font-style:normal;font-variant:normal;font-weight:bold;font-stretch:normal;font-size:4.55379px;font-family:Arvo;-inkscape-font-specification:'Arvo, Bold';font-variant-ligatures:normal;font-variant-caps:normal;font-variant-numeric:normal;font-variant-east-asian:normal;fill:#000000;stroke:none;stroke-width:0.2;stroke-linecap:square;stroke-linejoin:round"
           x="101.74968"
           y="43.74617"
           id="text1550"><tspan
             sodipodi:role="line"
             id="tspan1548"
             style="font-style:normal;font-variant:normal;font-weight:bold;font-stretch:normal;font-size:4.55379px;font-family:monospace;-inkscape-font-specification:'monospace, Bold';font-variant-ligatures:normal;font-variant-caps:normal;font-variant-numeric:normal;font-variant-east-asian:normal;stroke-width:0.2"
             x="101.74968"
             y="43.74617">{{username}}</tspan></text>
        <text
           xml:space="preserve"
           style="font-style:normal;font-variant:normal;font-weight:bold;font-stretch:normal;font-size:4.55379px;font-family:monospace;-inkscape-font-specification:'monospace, Bold';font-variant-ligatures:normal;font-variant-caps:normal;font-variant-numeric:normal;font-variant-east-asian:normal;fill:#000000;stroke:none;stroke-width:0.2;stroke-linecap:square;stroke-linejoin:round"
           x="101.70966"
           y="50.097607"
           id="text1554"><tspan
             sodipodi:role="line"
             id="tspan1552"
             style="stroke-width:0.2"
             x="101.70966"
             y="50.097607">{{dt.today().strftime('%d.%m.%Y')}}</tspan></text>
        <text
           xml:space="preserve"
           style="font-style:normal;font-variant:normal;font-weight:bold;font-stretch:normal;font-size:4.55379px;font-family:monospace;-inkscape-font-specification:'monospace, Bold';font-variant-ligatures:normal;font-variant-caps:normal;font-variant-numeric:normal;font-variant-east-asian:normal;fill:#000000;stroke:none;stroke-width:0.2;stroke-linecap:square;stroke-linejoin:round"
           x="101.74211"
           y="57.104794"
           id="text1558"><tspan
             sodipodi:role="line"
             id="tspan1556"
             style="stroke-width:0.2"
             x="101.74211"
             y="57.104794">{{dt.today().strftime('%T')}}</tspan></text>
      </g>
      <text
         xml:space="preserve"
         transform="matrix(0.38366017,0,0,0.38366017,-153.83236,-4.7614762)"
         id="text1564"
         style="font-style:normal;font-variant:normal;font-weight:bold;font-stretch:normal;font-size:12px;font-family:'Courier New';-inkscape-font-specification:'Courier New, Bold';font-variant-ligatures:normal;font-variant-caps:normal;font-variant-numeric:normal;font-variant-east-asian:normal;text-align:center;white-space:pre;shape-inside:url(#rect1574);display:inline;fill:#000000;stroke:none;stroke-width:0.521295;stroke-linecap:square;stroke-linejoin:round"
         x="-41.176758"
         y="0"><tspan
           x="631.44727"
           y="98.655421"
           id="tspan1688">{{org_name}}</tspan></text>
      <text
         xml:space="preserve"
         transform="matrix(0.38366017,0,0,0.38366017,-152.94178,-16.093971)"
         id="text1568"
         style="font-weight:bold;font-size:12px;font-family:'Courier New';-inkscape-font-specification:'Courier New, Bold';text-align:center;white-space:pre;shape-inside:url(#rect1576);display:inline;fill:#000000;stroke-width:0.521295;stroke-linecap:square;stroke-linejoin:round"
         x="-44.777344"
         y="0"><tspan
           x="625.52539"
           y="68.700343"
           id="tspan1690">{{host_info}}</tspan></text>
    </g>
  </g>
</svg>
