<?xml version="1.0" encoding="UTF-8" standalone="no"?>
<svg
   width="15.001264"
   height="13.792787"
   fill="currentColor"
   class="bi bi-house"
   viewBox="0 0 15.001264 13.792787"
   version="1.1"
   id="svg6"
   sodipodi:docname="house.svg"
   inkscape:version="1.1.1 (1:1.1+202109281949+c3084ef5ed)"
   xmlns:inkscape="http://www.inkscape.org/namespaces/inkscape"
   xmlns:sodipodi="http://sodipodi.sourceforge.net/DTD/sodipodi-0.dtd"
   xmlns="http://www.w3.org/2000/svg"
   xmlns:svg="http://www.w3.org/2000/svg">
  <defs
     id="defs10" />
  <sodipodi:namedview
     id="namedview8"
     pagecolor="#ffffff"
     bordercolor="#666666"
     borderopacity="1.0"
     inkscape:pageshadow="2"
     inkscape:pageopacity="0.0"
     inkscape:pagecheckerboard="0"
     showgrid="false"
     inkscape:zoom="41.625"
     inkscape:cx="7.5075075"
     inkscape:cy="6.7987988"
     inkscape:window-width="1920"
     inkscape:window-height="1007"
     inkscape:window-x="0"
     inkscape:window-y="0"
     inkscape:window-maximized="1"
     inkscape:current-layer="svg6" />
  <path
     fill-rule="evenodd"
     d="M 1.5006316,12.292786 V 5.7927865 h 1 v 6.4999995 a 0.5,0.5 0 0 0 0.5,0.5 h 9.0000004 a 0.5,0.5 0 0 0 0.5,-0.5 V 5.7927865 h 1 v 6.4999995 a 1.5,1.5 0 0 1 -1.5,1.5 H 3.0006316 a 1.5,1.5 0 0 1 -1.5,-1.5 z M 12.500632,1.2927865 v 3.5 l -2,-2 v -1.5 a 0.5,0.5 0 0 1 0.5,-0.50000005 h 1 a 0.5,0.5 0 0 1 0.5,0.50000005 z"
     id="path2" />
  <path
     fill-rule="evenodd"
     d="m 6.7936316,0.29278645 a 1,1 0 0 1 1.414,0 L 14.854632,6.9387865 a 0.5006316,0.5006316 0 0 1 -0.708,0.708 L 7.5006316,0.99978645 0.85463161,7.6467865 a 0.5006316,0.5006316 0 1 1 -0.708,-0.708 z"
     id="path4" />
</svg>
