<?xml version="1.0" encoding="iso-8859-1"?>
<!-- Generator: Adobe Illustrator 18.0.0, SVG Export Plug-In . SVG Version: 6.00 Build 0)  -->
<!DOCTYPE svg PUBLIC "-//W3C//DTD SVG 1.1//EN" "http://www.w3.org/Graphics/SVG/1.1/DTD/svg11.dtd">
<svg version="1.1" id="Capa_1" xmlns="http://www.w3.org/2000/svg" xmlns:xlink="http://www.w3.org/1999/xlink" x="0px" y="0px"
	 viewBox="0 0 297.298 297.298" style="enable-background:new 0 0 297.298 297.298;" xml:space="preserve">
<g>
	<circle cx="99.307" cy="27.596" r="27.59"/>
	<path d="M263.252,187.315h-24.544c10.521-6.649,17.166-17.478,17.166-33h7.378c2.762,0,5-2.238,5-5s-2.238-5-5-5h-7.378v-6.068
		c0-2.67-2.164-4.834-4.834-4.834h-54.922l-17.798-31.316c1.993-3.535,2.233-7.969,0.242-11.851
		c-2.166-4.223-6.405-6.689-10.838-6.794l-4.706-8.28c-1.364-2.401-4.414-3.24-6.817-1.876c-2.4,1.364-3.241,4.416-1.876,6.817
		l3.747,6.593l-29.475,15.118L115.08,78.467c-2.097-5.594-6.839-10.083-13.083-11.591l-32.308-7.803
		c-10.006-2.417-20.076,3.736-22.492,13.741l-22.342,92.509c-1.545,4.528-0.906,9.714,2.174,13.836l30.236,40.457l-5.012,61.461
		c-0.674,8.257,5.475,15.496,13.731,16.169c0.414,0.034,0.826,0.051,1.235,0.051c7.731,0,14.294-5.94,14.934-13.782l5.473-67.115
		c0.297-3.643-0.746-7.27-2.935-10.198L58.323,170.92l4.636,0.712l32.632,42.429l-2.776,67.622
		c-0.34,8.277,6.095,15.263,14.372,15.602c0.21,0.009,0.418,0.013,0.626,0.013c8,0,14.646-6.317,14.977-14.385l3-73.064
		c0.145-3.516-0.952-6.971-3.098-9.76l-25.642-33.34l1.604-6.642l-5.069-0.631c-11.459-1.426-18.514-10.37-19.838-15.973
		L61.992,93.766l23.433,46.977l0,0v0c1.969,3.947,5.819,6.349,9.642,6.825l49.559,6.167c6.873,0.856,13.098-4.031,13.948-10.86
		c0.844-6.778-3.941-13.087-10.861-13.948l-42.908-5.34L83.585,81.046c7.312,8.373,25.386,29.068,27.247,31.199
		c41.675,5.186,39.366,4.809,41.664,5.418l17.94-9.201l14.352,25.252c-1.865,0.671-3.206,2.437-3.206,4.533v6.068h-7.379
		c-2.762,0-5,2.238-5,5s2.238,5,5,5h7.379c0,15.602,6.714,26.395,17.166,33h-24.544c-5.523,0-10,4.477-10,10s4.477,10,10,10h0
		v83.924c0,3.347,2.713,6.06,6.06,6.06h76.931c3.347,0,6.06-2.713,6.06-6.06v-83.924c5.522,0,10-4.478,10-10
		C273.252,191.792,268.775,187.315,263.252,187.315z"/>
	<path d="M228.043,94.526c-0.12,0.632,0.194,1.267,0.769,1.554c0.575,0.288,1.271,0.158,1.705-0.317
		c3.274-3.584,6.631-8.696,4.902-13.362c-2.615-7.058-5.183-10.19-4.033-15.507c0.075-0.347-0.098-0.7-0.418-0.854
		c-0.32-0.154-0.704-0.069-0.928,0.207c-2.168,2.664-4.955,7.388-4.139,13.426C226.829,86.545,228.889,90.087,228.043,94.526z"/>
	<path d="M208.998,120.417c-0.12,0.632,0.194,1.267,0.769,1.554c0.575,0.288,1.271,0.158,1.705-0.317
		c3.274-3.584,6.631-8.695,4.902-13.362c-2.615-7.058-5.183-10.191-4.033-15.507c0.075-0.347-0.098-0.7-0.418-0.854
		c-0.32-0.154-0.704-0.069-0.928,0.207c-2.168,2.664-4.955,7.388-4.139,13.426C207.783,112.437,209.843,115.978,208.998,120.417z"/>
</g>
<g>
</g>
<g>
</g>
<g>
</g>
<g>
</g>
<g>
</g>
<g>
</g>
<g>
</g>
<g>
</g>
<g>
</g>
<g>
</g>
<g>
</g>
<g>
</g>
<g>
</g>
<g>
</g>
<g>
</g>
</svg>
