<?xml version="1.0" encoding="UTF-8" standalone="no"?>
<svg
   width="101.92838mm"
   height="101.94332mm"
   viewBox="0 0 101.92838 101.94332"
   version="1.1"
   id="svg898"
   inkscape:version="1.1 (1:1.1+202105261517+ce6663b3b7)"
   sodipodi:docname="logo_dpsg_beckum.svg"
   xmlns:inkscape="http://www.inkscape.org/namespaces/inkscape"
   xmlns:sodipodi="http://sodipodi.sourceforge.net/DTD/sodipodi-0.dtd"
   xmlns="http://www.w3.org/2000/svg"
   xmlns:svg="http://www.w3.org/2000/svg"
   xmlns:rdf="http://www.w3.org/1999/02/22-rdf-syntax-ns#"
   xmlns:cc="http://creativecommons.org/ns#"
   xmlns:dc="http://purl.org/dc/elements/1.1/">
  <defs
     id="defs892" />
  <sodipodi:namedview
     id="base"
     pagecolor="#ffffff"
     bordercolor="#666666"
     borderopacity="1.0"
     inkscape:pageopacity="0.0"
     inkscape:pageshadow="2"
     inkscape:zoom="0.9899495"
     inkscape:cx="304.56099"
     inkscape:cy="223.74879"
     inkscape:document-units="mm"
     inkscape:current-layer="layer1"
     inkscape:document-rotation="0"
     showgrid="false"
     inkscape:pagecheckerboard="0"
     inkscape:window-width="1920"
     inkscape:window-height="1001"
     inkscape:window-x="0"
     inkscape:window-y="295"
     inkscape:window-maximized="1" />
  <metadata
     id="metadata895">
    <rdf:RDF>
      <cc:Work
         rdf:about="">
        <dc:format>image/svg+xml</dc:format>
        <dc:type
           rdf:resource="http://purl.org/dc/dcmitype/StillImage" />
        <dc:title />
      </cc:Work>
    </rdf:RDF>
  </metadata>
  <g
     inkscape:label="Ebene 1"
     inkscape:groupmode="layer"
     id="layer1"
     transform="translate(-58.893757,-34.231888)">
    <circle
       r="49.325893"
       cy="85.203545"
       cx="109.85794"
       id="path841"
       style="fill:#ffffff;stroke-width:0.308999" />
    <path
       d="m 109.60003,51.99114 c -1.64211,0.01021 -3.2766,0.07979 -4.12585,0.203605 -0.7416,0.108127 -1.44484,0.231836 -1.56269,0.275437 -0.18255,0.06753 0.11633,0.411387 2.01641,2.319237 1.22687,1.231894 2.33096,2.32882 2.4536,2.437579 0.20459,0.181433 0.48348,0.197136 3.38119,0.189135 3.0775,-0.0085 3.17052,-0.0026 3.64422,0.239779 0.26737,0.136787 0.62764,0.426979 0.80046,0.644406 0.30339,0.381211 0.31403,0.437025 0.30903,1.574064 -0.003,0.648515 -0.0537,1.455843 -0.11369,1.793687 -0.06,0.337847 -0.12261,1.08185 -0.13901,1.653646 l -0.03,1.03973 6.07405,0.05478 6.07353,0.05478 0.7214,0.711068 c 3.59327,3.54285 4.91443,4.868142 4.91443,4.92993 0,0.0399 -0.40623,0.107572 -0.90278,0.149863 -2.84178,0.241993 -3.43843,0.284271 -4.73305,0.338482 -0.78246,0.03276 -1.69364,0.10541 -2.02468,0.161229 -0.33104,0.05582 -1.27274,0.12773 -2.0929,0.159681 -0.82016,0.03195 -1.59898,0.09805 -1.73064,0.146762 -0.21788,0.0806 -0.1009,0.227258 1.30534,1.63349 1.43355,1.43352 1.56654,1.538642 1.8402,1.456242 0.16222,-0.04888 0.68896,-0.210621 1.17047,-0.35915 1.61003,-0.49661 1.85407,-0.547122 3.0639,-0.632521 1.31388,-0.09277 2.39213,0.04398 3.17655,0.402561 0.65745,0.300529 1.63625,0.976651 1.82831,1.26297 0.0938,0.139851 0.27629,0.365463 0.40566,0.501264 0.63189,0.663328 1.53924,2.958539 1.85932,4.703587 0.22105,1.205299 0.34759,3.105587 0.31419,4.724776 l -0.0325,1.576649 2.5156,2.511992 2.5151,2.512507 0.078,-0.368454 c 0.48584,-2.304338 0.62152,-7.203739 0.27285,-9.84591 -1.02131,-7.739319 -4.28652,-14.324137 -9.7715,-19.706291 -1.49572,-1.467678 -1.84177,-1.764424 -3.48971,-2.991548 -4.5425,-3.382518 -10.00334,-5.56038 -15.8135,-6.307109 -0.87983,-0.113075 -2.52922,-0.162134 -4.17132,-0.151929 z m -13.063804,2.686659 c -0.213665,0.0024 -3.094982,1.510644 -4.182692,2.18953 -1.074875,0.670878 -2.577008,1.720173 -3.32486,2.322338 l -0.372589,0.299725 2.462384,2.461863 2.462382,2.462382 4.705654,-5.29e-4 c 2.588135,-2.41e-4 4.773005,-0.04262 4.855005,-0.09457 0.15777,-0.09996 0.14031,-0.469144 -0.11266,-2.419491 l -0.1204,-0.930177 -3.131079,-3.146059 c -1.722024,-1.730442 -3.180566,-3.145685 -3.241145,-3.145028 z m -12.49743,9.411311 -0.871781,1.175639 c -1.418121,1.912712 -2.964219,4.509129 -3.654557,6.137092 l -0.247531,0.583428 2.168345,2.170411 2.168343,2.170409 0.401007,-0.620117 c 0.836467,-1.29303 2.160918,-2.175394 3.707786,-2.470132 1.420395,-0.270642 3.69833,0.02043 5.534547,0.707448 0.337179,0.126212 0.662638,0.213054 0.723468,0.192755 0.06083,-0.02029 -0.672896,-0.829533 -1.630907,-1.798341 l -1.742014,-1.761649 -1.079003,-0.07183 c -2.2084,-0.147744 -3.979084,-0.321861 -3.979084,-0.391192 0,-0.03933 0.506558,-0.577972 1.125511,-1.196827 l 1.124997,-1.124995 -1.371494,-1.377177 c -0.754377,-0.757399 -1.59807,-1.590382 -1.874821,-1.851049 z m 16.436724,7.202662 1.8588,1.869652 c 1.02255,1.02839 1.87861,1.87017 1.90221,1.87017 0.0237,0 0.0127,-0.382067 -0.0243,-0.848527 -0.0369,-0.466468 -0.0907,-1.206974 -0.11989,-1.645893 -0.0292,-0.438928 -0.0778,-0.838375 -0.108,-0.887286 -0.0516,-0.08352 -0.75367,-0.161745 -2.68821,-0.299723 z m 14.86834,2.207617 c -0.0622,0 -0.16863,0.655638 -0.24443,1.504818 -0.0738,0.827601 -0.17811,1.77529 -0.23151,2.106332 -0.0534,0.331038 -0.13055,1.155832 -0.17105,1.832962 -0.054,0.90185 -0.0401,1.23145 0.0527,1.23145 0.0697,0 0.40767,-0.181102 0.75086,-0.402042 1.23634,-0.795902 2.66265,-1.677419 2.71405,-1.677419 0.0288,0 0.29508,-0.163526 0.59169,-0.363284 l 0.5395,-0.363286 -1.94561,-1.934765 c -1.0702,-1.064221 -1.99551,-1.934766 -2.05621,-1.934766 z m -38.251927,5.717998 c -0.0079,0.0024 -0.01291,0.008 -0.01601,0.01601 -0.03675,0.09576 -0.15362,0.777444 -0.259416,1.515155 -0.29595,2.063589 -0.271605,7.158768 0.04392,9.167397 1.036085,6.59556 3.590965,12.197051 7.785055,17.070271 3.264316,3.79289 7.387783,6.77646 11.977047,8.75451 a 34.210498,34.210498 0 0 0 13.225031,2.65978 34.210498,34.210498 0 0 0 6.05027,-0.5395 c -0.14723,-0.17354 -1.10619,-1.15386 -2.33164,-2.38022 -1.52791,-1.52904 -2.39051,-2.46822 -2.29701,-2.50062 0.0824,-0.0285 -1.17243,-0.0592 -2.78846,-0.0682 -1.61603,-0.009 -2.98961,-0.0482 -3.05201,-0.0868 -0.11101,-0.0686 -0.0844,-1.22699 0.094,-4.11499 0.0807,-1.30582 10e-4,-1.44428 -0.51418,-0.89297 -0.14592,0.1561 -0.68418,0.63584 -1.1958,1.06557 -0.51161,0.42974 -1.02983,0.88062 -1.15186,1.002 -0.4583,0.4559 -1.40164,1.20868 -1.62523,1.29708 -0.56913,0.22491 -2.778758,-0.3049 -3.265427,-0.7829 -0.177319,-0.17417 -0.17421,-0.20691 0.05478,-0.58756 0.133382,-0.22172 0.632773,-0.96012 1.109494,-1.64124 0.476721,-0.68111 1.184253,-1.7061 1.572513,-2.2779 0.38826,-0.57179 0.84784,-1.21934 1.02113,-1.43867 0.17328,-0.21932 0.31522,-0.46297 0.31522,-0.54157 0,-0.0786 -0.56016,-0.71192 -1.24488,-1.40715 l -1.245405,-1.264 -0.916223,0.68264 c -1.250648,0.93127 -2.754809,1.83702 -3.543969,2.13424 -0.557564,0.21001 -0.868513,0.2468 -2.080493,0.24701 -1.393864,2.7e-4 -1.441336,-0.008 -2.164725,-0.3638 -1.18953,-0.58575 -2.588808,-2.1038 -4.338238,-4.707719 -1.32756,-1.976001 -2.905337,-5.720942 -3.395657,-8.059973 -0.07571,-0.36114 -0.17638,-0.804383 -0.223759,-0.984953 -0.04738,-0.18056 -0.144499,-0.722551 -0.216008,-1.204061 -0.07151,-0.48151 -0.174683,-1.143153 -0.229444,-1.470194 -0.05476,-0.327052 -0.10382,-1.336445 -0.108519,-2.243275 -0.0048,-0.906831 -0.03547,-1.581534 -0.06821,-1.499132 -0.03865,0.09727 -0.912529,-0.702866 -2.492354,-2.281515 -1.690536,-1.689291 -2.36507,-2.308276 -2.483569,-2.272729 z m 21.173903,7.154084 c -0.202965,0.0059 -0.373274,0.05009 -0.484725,0.128156 -0.302604,0.211953 -0.278169,0.45469 0.381371,3.782201 l 0.148828,0.750858 3.65353,3.656108 3.65403,3.656107 0.29766,-0.357602 c 0.1639,-0.196639 0.29928,-0.399085 0.30127,-0.449586 0.002,-0.05054 0.11366,-0.184158 0.24908,-0.297137 0.22806,-0.19027 0.47646,-0.205224 3.36517,-0.207225 1.7154,-0.0011 3.16911,0.03383 3.23082,0.07803 0.0617,0.04422 0.96803,1.360998 2.01383,2.925919 1.04579,1.56492 2.02938,3.01785 2.18591,3.22875 0.15654,0.2109 0.33357,0.46603 0.39377,0.56689 0.0602,0.10085 0.57874,0.83897 1.15239,1.64072 1.77443,2.47997 3.17002,4.57793 3.17035,4.76612 2.3e-4,0.15132 -0.627,0.49633 -1.3348,0.73381 -0.46349,0.15551 -1.78949,0.35182 -2.00299,0.29662 -0.0602,-0.0156 0.89988,0.98375 2.13321,2.22105 v 5.3e-4 c 1.23333,1.2373 2.25161,2.24948 2.26291,2.24948 0.13499,0 2.3393,-1.1068 3.26543,-1.6397 1.77456,-1.02105 4.54081,-2.95424 4.54081,-3.17345 0,-0.0458 -1.61308,-1.69666 -3.58428,-3.66851 -1.9712,-1.97184 -3.57147,-3.62767 -3.55637,-3.67987 0.015,-0.0521 -0.023,-0.0951 -0.0847,-0.0951 -0.15551,0 -1.42082,-0.80218 -2.40502,-1.52497 -0.77351,-0.56807 -2.77089,-2.209477 -3.00963,-2.473238 -0.0602,-0.06649 -0.64112,-0.583782 -1.2914,-1.1498 -1.08121,-0.941091 -1.16547,-1.04173 -0.98495,-1.175639 0.11161,-0.0827 0.32801,-0.121052 0.49816,-0.08785 0.17217,0.0336 0.30076,0.01045 0.30076,-0.05426 0,-0.0623 0.0617,-0.07621 0.13694,-0.03101 0.25881,0.155479 -0.19056,-0.324623 -1.82366,-1.948202 -0.89779,-0.892561 -1.67373,-1.623157 -1.72393,-1.623157 -0.0502,0 -0.091,0.191891 -0.091,0.426331 0,0.412699 -0.013,0.427487 -0.41031,0.465087 -0.22571,0.02119 -1.79675,0.02466 -3.49074,0.0078 l -3.07992,-0.03049 -0.0656,-0.352435 c -0.0692,-0.371449 -0.30906,-2.861017 -0.32866,-3.410128 -0.0266,-0.742688 -1.88074,-2.224312 -3.84214,-3.070613 -0.5417,-0.233731 -1.03379,-0.459362 -1.09399,-0.501262 -0.16517,-0.114958 -1.905762,-0.523856 -2.434479,-0.572058 -0.07392,-0.0067 -0.145251,-0.0092 -0.212905,-0.0072 z m 23.369114,0.02532 c -1.02111,-0.04423 -2.33214,0.284927 -3.86901,0.971518 l -0.8754,0.391189 2.07739,2.058273 c 2.26862,2.24772 2.20674,2.216552 2.36575,1.191141 0.0822,-0.53036 0.25893,-1.475028 0.43976,-2.352828 0.062,-0.30094 0.13854,-0.928794 0.17054,-1.395262 l 0.0584,-0.848011 z m 14.25288,7.680669 c -0.007,-9.6e-5 -0.0104,0.0032 -0.0104,0.01035 0,0.10505 -0.0436,0.218048 -0.0971,0.251148 -0.0535,0.03308 -0.12893,0.185758 -0.16743,0.338997 -0.11432,0.455491 -0.76654,1.859407 -1.37149,2.951758 -0.77659,1.402289 -0.94991,1.674074 -1.69654,2.661847 -0.42415,0.56116 -0.83264,1.1334 -0.90744,1.27176 -0.0748,0.13836 -0.20143,0.30598 -0.28163,0.37259 -0.11512,0.0955 0.29321,0.55885 1.94148,2.20193 1.14813,1.14452 2.14377,2.0811 2.21227,2.08152 0.12722,8e-4 1.29297,-1.49882 2.08359,-2.68045 0.66797,-0.99832 1.59015,-2.63542 2.22106,-3.943425 l 0.56689,-1.176155 -2.25155,-2.261362 c -1.26715,-1.272402 -2.13786,-2.079064 -2.24172,-2.080493 z"
       style="display:inline;fill:#e21d24;fill-opacity:1;stroke:none;stroke-width:0.709001;stroke-miterlimit:4;stroke-dasharray:none;stroke-opacity:1"
       id="path1222" />
    <path
       d="m 105.6631,112.89068 c -0.25859,-0.0588 -0.26319,-0.081 -0.26035,-1.2585 0.002,-0.65924 0.0459,-1.85113 0.0984,-2.64864 0.0823,-1.2483 0.0731,-1.45001 -0.0659,-1.45001 -0.0888,0 -0.28083,0.12772 -0.42675,0.28383 -0.14592,0.1561 -0.68389,0.63543 -1.1955,1.06516 -0.51161,0.42974 -1.03003,0.88065 -1.15206,1.00203 -0.4583,0.4559 -1.40178,1.20896 -1.62537,1.29731 -0.56913,0.22491 -2.778471,-0.30472 -3.265139,-0.78272 -0.177321,-0.17417 -0.17427,-0.20693 0.05472,-0.58758 0.13338,-0.22172 0.632551,-0.96041 1.109264,-1.64153 0.47672,-0.68111 1.184435,-1.70623 1.572695,-2.27803 0.38826,-0.57179 0.84771,-1.21907 1.021,-1.4384 0.17328,-0.21932 0.31506,-0.44914 0.31506,-0.51069 0,-0.0616 0.0369,-0.12835 0.0821,-0.14841 0.0451,-0.0201 0.49853,-0.65205 1.00753,-1.40441 0.50901,-0.75237 1.42005,-2.09764 2.02455,-2.989502 0.6045,-0.89185 1.14833,-1.702 1.20852,-1.80033 0.34776,-0.56811 0.32808,-0.56507 3.66607,-0.56717 1.7154,-0.001 3.16934,0.0342 3.23099,0.0784 0.0617,0.0442 0.96774,1.36079 2.01353,2.925712 1.04579,1.56492 2.02951,3.01787 2.18604,3.22877 0.15654,0.2109 0.33386,0.46596 0.39405,0.56682 0.0602,0.10085 0.57879,0.83934 1.15244,1.64109 1.77443,2.47997 3.16974,4.57772 3.17003,4.76591 2.2e-4,0.14038 -0.68428,0.52894 -1.25518,0.71251 -0.18228,0.0586 -0.7183,0.16753 -1.19114,0.24206 l -0.85973,0.13549 -0.50821,-0.41112 c -0.27952,-0.22611 -0.65595,-0.54058 -0.83652,-0.69881 -0.18057,-0.15823 -0.54991,-0.47791 -0.82076,-0.7104 -0.27085,-0.23248 -0.61874,-0.53828 -0.77308,-0.67954 -0.49914,-0.45684 -1.43785,-1.23927 -1.59837,-1.33226 -0.1669,-0.0967 -0.16013,0.12755 0.0815,2.70117 0.1291,1.37516 0.12662,2.37816 -0.006,2.58749 -0.0897,0.14112 -0.6781,0.16415 -4.19455,0.16415 -2.24964,0 -4.2087,-0.0269 -4.35349,-0.0599 z m -14.333376,-8.67477 c -1.450567,-0.40746 -2.93806,-1.88393 -5.020102,-4.982932 -1.327561,-1.976 -2.905274,-5.72095 -3.395594,-8.05998 -0.0757,-0.36114 -0.176409,-0.80435 -0.22379,-0.98492 -0.04738,-0.18056 -0.144654,-0.72227 -0.21616,-1.20378 -0.07151,-0.48151 -0.174821,-1.14307 -0.229586,-1.47011 -0.05477,-0.32705 -0.09825,-1.75518 -0.09664,-3.17362 0.0025,-2.20959 0.03988,-2.79058 0.260895,-4.05635 0.464103,-2.65802 1.162461,-4.27496 2.375434,-5.49996 1.292954,-1.30577 2.72633,-1.77146 4.943246,-1.606 1.630322,0.12168 3.240444,0.54927 5.057228,1.34301 1.221684,0.53375 4.1751,2.05971 5.307605,2.74231 0.5718,0.34465 1.13812,0.68421 1.2585,0.75458 0.36561,0.21374 1.25823,0.78073 2.34243,1.48792 0.56606,0.36922 1.05104,0.64948 1.07773,0.62279 0.0267,-0.0267 -0.0301,-0.82752 -0.12622,-1.77963 -0.0961,-0.9521 -0.22593,-2.2728 -0.28849,-2.93488 -0.0626,-0.66208 -0.14022,-1.40077 -0.17258,-1.64152 -0.0324,-0.24076 -0.0781,-0.79686 -0.10169,-1.23578 -0.0236,-0.438929 -0.0676,-0.838066 -0.0978,-0.886978 -0.0545,-0.0882 -1.05872,-0.195553 -2.74281,-0.293203 -0.48152,-0.02792 -2.131255,-0.146306 -3.666083,-0.26308 -1.534826,-0.116773 -3.553901,-0.266486 -4.486834,-0.332694 -6.75201,-0.479178 -7.551015,-0.547873 -7.551015,-0.649212 0,-0.07069 3.555963,-3.639477 5.015704,-5.033788 l 0.693022,-0.66196 5.873077,-0.0017 c 3.230199,-8.75e-4 5.938589,-0.0432 6.018649,-0.09395 0.11834,-0.07502 0.12339,-0.294683 0.027,-1.174751 -0.0652,-0.59536 -0.17597,-1.782221 -0.24614,-2.637467 l -0.12758,-1.554993 0.32081,-0.524272 c 0.22293,-0.3643 0.47067,-0.597756 0.81191,-0.7651 0.48486,-0.237772 0.55787,-0.240892 5.74929,-0.245662 5.23824,-0.0048 5.26003,-0.0039 5.739,0.240829 0.26443,0.135114 0.6222,0.423556 0.79503,0.640982 0.30302,0.381212 0.31406,0.437398 0.30938,1.574436 -0.003,0.648515 -0.0539,1.455536 -0.11395,1.79338 -0.06,0.337845 -0.12251,1.082098 -0.13889,1.653896 l -0.0298,1.039632 6.07364,0.05472 6.07364,0.05472 0.72146,0.711327 c 3.59327,3.542849 4.91445,4.868206 4.91445,4.929995 0,0.0399 -0.40628,0.107142 -0.90284,0.149429 -0.49656,0.04229 -1.44454,0.122891 -2.10663,0.179122 -0.66208,0.05623 -1.89322,0.131367 -2.73587,0.166967 -0.84265,0.0356 -1.70445,0.109538 -1.91511,0.164306 -0.21066,0.05477 -0.76382,0.09985 -1.22924,0.100189 -0.46542,3.28e-4 -1.89354,0.09544 -3.17361,0.211337 -1.28007,0.115901 -3.23845,0.268192 -4.35195,0.338425 -1.1135,0.07023 -2.05763,0.160077 -2.09806,0.199654 -0.0404,0.03958 -0.20801,1.352344 -0.3724,2.917264 -0.51354,4.88864 -0.56216,5.6359 -0.36666,5.6359 0.0647,0 0.47098,-0.22913 0.90284,-0.50918 0.85785,-0.55629 2.01965,-1.27636 2.53617,-1.57189 0.18057,-0.10331 0.73397,-0.43805 1.22978,-0.74386 1.49815,-0.92404 3.76219,-2.12443 5.06273,-2.68425 0.39123,-0.16841 0.80982,-0.34999 0.9302,-0.40352 0.12038,-0.0535 0.53897,-0.20004 0.9302,-0.32559 2.92975,-0.94019 5.20847,-1.06466 6.73294,-0.36779 0.65745,0.30053 1.63634,0.97676 1.8284,1.26308 0.0938,0.13985 0.27642,0.36539 0.40579,0.50119 0.63084,0.66223 1.53947,2.95931 1.85766,4.69632 0.26215,1.43113 0.36146,3.20238 0.29958,5.34365 -0.0564,1.95252 -0.14737,2.77893 -0.5119,4.65099 -0.28633,1.47048 -0.34173,1.71478 -0.43424,1.91511 -0.0556,0.12038 -0.15538,0.44048 -0.22174,0.71133 -0.13714,0.55969 -0.39123,1.31487 -0.61313,1.82222 -0.0829,0.18966 -0.15082,0.3731 -0.15082,0.40764 0,0.15254 -0.79338,1.82033 -1.30792,2.74943 -0.77659,1.40229 -0.94977,1.67403 -1.6964,2.661812 -0.42415,0.56116 -0.8326,1.13389 -0.90766,1.27273 -0.0751,0.13885 -0.51828,0.64558 -0.98492,1.12607 -0.63767,0.65659 -1.03874,0.96473 -1.61449,1.24041 -0.70103,0.33566 -0.87121,0.37046 -2.00519,0.41008 -1.06405,0.0372 -1.34239,0.009 -1.96983,-0.2004 -1.51777,-0.50617 -3.38554,-1.70291 -5.70997,-3.65856 -0.5718,-0.48108 -1.08888,-0.929102 -1.14907,-0.995592 -0.0602,-0.0665 -0.64148,-0.58401 -1.29176,-1.15003 -1.08118,-0.94109 -1.16543,-1.04166 -0.98491,-1.17557 0.11161,-0.0828 0.3282,-0.12088 0.49835,-0.0876 0.16552,0.0323 0.30095,0.0218 0.30095,-0.0235 0,-0.0452 0.20357,-0.0628 0.45239,-0.0391 0.25113,0.0239 0.75014,-0.0465 1.1217,-0.15829 1.4117,-0.42485 2.22119,-1.74583 2.75457,-4.49514 0.18362,-0.94643 0.29305,-1.51539 0.48032,-2.4972 0.0689,-0.36114 0.17596,-0.90284 0.23796,-1.20379 0.062,-0.30094 0.13891,-0.92882 0.17092,-1.39529 l 0.0582,-0.84812 -0.36725,-0.0159 c -1.60499,-0.0695 -4.42675,0.9914 -6.38029,2.39886 -1.50677,1.08557 -1.65307,1.40298 -1.9282,4.18315 -0.0685,0.69217 -0.13184,1.26582 -0.14075,1.27477 -0.051,0.0512 -1.22936,0.0673 -3.91632,0.0537 l -3.02464,-0.0153 -0.0662,-0.35567 c -0.0696,-0.37397 -0.30989,-2.86204 -0.32963,-3.4136 -0.0266,-0.74269 -1.88036,-2.22441 -3.84176,-3.07071 -0.5417,-0.23373 -1.03416,-0.45925 -1.09435,-0.50114 -0.16517,-0.11496 -1.905415,-0.52414 -2.434134,-0.57233 -0.295674,-0.0269 -0.549049,0.017 -0.69765,0.12113 -0.3118,0.21839 -0.289547,0.41449 0.499304,4.39983 0.382955,1.93469 0.448245,2.23024 0.663355,3.00257 0.43381,1.55758 1.307445,2.64126 2.387995,2.96214 0.30308,0.09 0.94839,0.1644 1.43403,0.16533 1.26981,0.002 1.32081,0.0768 0.54459,0.79464 -0.35559,0.32883 -0.81889,0.7466 -1.02955,0.92836 -0.21066,0.18176 -0.85086,0.73908 -1.42266,1.23848 -2.084455,1.820562 -4.695357,3.597672 -5.96421,4.059542 -0.807529,0.29394 -2.78083,0.38553 -3.564369,0.16544 z"
       style="display:inline;fill:#2d4897;fill-opacity:1;stroke:none;stroke-width:0.309;stroke-miterlimit:4;stroke-dasharray:none;stroke-opacity:1"
       id="path1271" />
    <path
       d="m 106.65836,136.13937 c -3.42316,-0.29422 -4.50831,-0.44146 -7.167995,-0.97256 C 88.54265,132.98068 78.383952,126.96537 70.949921,118.26704 64.80556,111.07772 60.685532,102.02586 59.340089,92.759808 c -0.403113,-2.77624 -0.450077,-3.58844 -0.446116,-7.71517 0.0035,-3.64753 0.03361,-4.38209 0.24504,-5.97785 1.103591,-8.329336 3.722349,-15.418874 8.160505,-22.092223 2.032239,-3.055739 3.716968,-5.090746 6.572492,-7.939007 4.009097,-3.998899 8.167097,-6.996484 13.204511,-9.519394 5.866735,-2.938263 12.150354,-4.66473 18.945539,-5.205417 2.02398,-0.161046 7.64751,-0.06093 9.50053,0.169143 3.69374,0.458611 7.15996,1.219098 10.30549,2.261012 15.27013,5.058039 27.29146,17.040291 32.37673,32.271511 2.39253,7.165985 3.16651,14.992385 2.23224,22.572015 -2.27753,18.477352 -14.70004,34.404492 -32.11056,41.169572 -4.25174,1.65207 -8.18115,2.61275 -13.02575,3.18458 -1.39633,0.16482 -7.42999,0.305 -8.64238,0.20079 z m 7.87932,-3.93432 c 15.02854,-1.55387 28.05293,-9.87646 35.97357,-22.98712 0.18575,-0.30746 0.73279,-1.31699 1.21566,-2.24342 5.13368,-9.849472 6.60717,-21.216142 4.16924,-32.162042 C 154.18401,67.125225 150.2327,59.455652 145.01479,53.691515 133.95102,41.469566 117.81893,35.873474 101.68074,38.659284 93.146986,40.132397 85.082423,44.009586 78.588279,49.76141 69.646868,57.680764 64.181024,68.227697 62.826847,80.174778 c -0.390371,3.44401 -0.321468,7.88337 0.178098,11.47477 1.970885,14.168762 10.215287,26.659572 22.473782,34.049262 1.6658,1.00418 4.734955,2.53805 6.570056,3.28351 7.059792,2.86787 14.964817,4.00068 22.488897,3.22273 z m -4.0491,-2.42495 c -0.37343,-0.0451 -0.41999,-0.10997 -1.86039,-2.59071 l -1.47737,-2.54442 -0.0682,1.15664 c -0.0375,0.63614 -0.0744,1.79067 -0.0821,2.5656 l -0.0139,1.40898 -0.34198,-0.0684 c -0.18809,-0.0376 -0.53601,-0.0684 -0.77314,-0.0684 h -0.43116 l 0.0619,-1.66889 c 0.034,-0.91788 0.0919,-2.69073 0.12857,-3.93966 l 0.0667,-2.27077 0.78137,0.003 0.78136,0.003 1.41202,2.46116 c 0.77662,1.35364 1.4768,2.54647 1.55597,2.65072 0.12165,0.16019 0.14449,-0.007 0.14743,-1.07913 0.002,-0.69777 0.0357,-1.86736 0.075,-2.59908 l 0.0715,-1.3304 0.72187,-1.1e-4 0.72187,-1.1e-4 -0.0343,1.50489 c -0.0189,0.82769 -0.0681,2.61292 -0.10943,3.96717 l -0.0752,2.46229 -0.43774,0.0114 c -0.24076,0.006 -0.6101,-0.009 -0.82077,-0.0349 z m -7.44055,-0.44912 -0.71031,-0.18404 -0.12861,-0.91188 c -0.0707,-0.50153 -0.14507,-0.92664 -0.16518,-0.94469 -0.0563,-0.0505 -3.077695,-0.72047 -3.105375,-0.68855 -0.0134,0.0155 -0.25135,0.3808 -0.528754,0.81187 l -0.504363,0.78375 -0.630192,-0.15061 c -0.346607,-0.0828 -0.69175,-0.15235 -0.766987,-0.1545 -0.07524,-0.002 -0.136794,-0.0503 -0.136794,-0.10709 0,-0.0856 4.359615,-6.66343 4.593965,-6.93138 0.0411,-0.047 0.44009,-0.005 0.88664,0.0931 l 0.81191,0.17851 0.64722,4.01076 c 0.35597,2.20592 0.6695,4.09694 0.69673,4.20227 0.0602,0.23278 -0.0356,0.23203 -0.9599,-0.007 z m -1.23611,-3.82275 c -0.0323,-0.16552 -0.11982,-0.79341 -0.19458,-1.3953 -0.0748,-0.60189 -0.1701,-1.13359 -0.21186,-1.18156 -0.0718,-0.0824 -1.498555,2.06706 -1.558605,2.34812 -0.0276,0.12901 1.207365,0.49132 1.763795,0.51747 0.22666,0.0106 0.25241,-0.0263 0.20125,-0.28873 z m 13.19104,3.57256 c -0.64086,-0.31722 -0.97268,-0.75184 -1.22922,-1.61002 -0.2602,-0.87041 -1.02445,-5.34587 -0.94725,-5.54706 0.051,-0.1328 1.33904,-0.35339 1.44498,-0.24745 0.0268,0.0268 0.24697,1.21492 0.48935,2.64035 0.24239,1.42542 0.48464,2.70725 0.53835,2.84851 0.1262,0.33195 0.58337,0.68884 0.99944,0.78022 0.52844,0.11607 1.37194,-0.14104 1.68559,-0.51379 0.36799,-0.43734 0.35735,-0.80112 -0.10267,-3.50809 -0.54423,-3.20248 -0.58095,-2.84213 0.30463,-2.99016 0.5421,-0.0906 0.75943,-0.0919 0.78822,-0.005 0.0558,0.16863 0.78169,4.70229 0.86493,5.40163 0.12349,1.03753 -0.24653,1.8822 -1.04548,2.38655 -0.9673,0.61063 -2.91494,0.79771 -3.79087,0.36413 z m 7.54099,-1.91545 c -0.55327,-0.2757 -1.37904,-1.15653 -1.30172,-1.38849 0.0189,-0.0568 0.33205,-0.23834 0.69585,-0.40347 l 0.66145,-0.30026 0.20287,0.30185 c 0.44098,0.65612 1.24692,0.82929 2.07689,0.44624 0.9025,-0.41654 1.24888,-1.13915 0.81217,-1.69434 l -0.24455,-0.3109 -1.73453,0.0789 c -1.71993,0.0782 -1.73936,0.0765 -2.30836,-0.20423 -0.73259,-0.36148 -1.08782,-0.87212 -1.15294,-1.65735 -0.0938,-1.13092 0.5852,-1.97737 2.03612,-2.53834 0.72932,-0.28198 1.91705,-0.3311 2.46545,-0.10196 0.34025,0.14216 1.16627,0.9843 1.16627,1.18902 0,0.1054 -1.12557,0.63089 -1.35133,0.63089 -0.0777,0 -0.2472,-0.12181 -0.37665,-0.27069 -0.31395,-0.36107 -0.69411,-0.44094 -1.29629,-0.27234 -0.52702,0.14756 -1.2437,0.72895 -1.2437,1.00893 0,0.0916 0.0946,0.28272 0.21012,0.42482 0.20002,0.24593 0.25922,0.25582 1.23115,0.20573 1.81698,-0.0936 2.74805,-0.0538 3.10028,0.13279 0.75908,0.40203 1.26101,1.28288 1.2561,2.20436 -0.006,1.19994 -1.03611,2.20759 -2.6984,2.64056 -0.93237,0.24286 -1.54216,0.20921 -2.20625,-0.12172 z m -28.443261,-0.20586 c -0.315993,-0.14434 -0.574533,-0.30371 -0.574533,-0.35416 0,-0.0504 0.299617,-0.77135 0.665817,-1.60203 0.366199,-0.83067 0.649362,-1.52238 0.629252,-1.53713 -0.142765,-0.10471 -2.66304,-1.15891 -2.770598,-1.15891 -0.07453,0 -0.418304,0.65251 -0.763941,1.45002 -0.345638,0.7975 -0.663139,1.48734 -0.705558,1.53296 -0.04242,0.0456 -0.385324,-0.05 -0.762008,-0.21256 -0.498102,-0.21492 -0.670591,-0.342 -0.632479,-0.46597 0.02882,-0.0938 0.454276,-1.08151 0.945453,-2.19501 0.491178,-1.1135 1.168557,-2.66474 1.505285,-3.4472 0.336729,-0.78247 0.623295,-1.43787 0.636814,-1.45646 0.01352,-0.0186 0.349629,0.11359 0.746912,0.29372 l 0.722335,0.32753 -0.229927,0.52704 c -0.836321,1.91701 -0.970446,2.26869 -0.89385,2.34371 0.165058,0.16165 2.659961,1.20415 2.749434,1.14886 0.04969,-0.0307 0.350048,-0.64897 0.667452,-1.3739 0.317404,-0.72492 0.633411,-1.31562 0.702236,-1.31266 0.06883,0.003 0.401503,0.13839 0.739283,0.30095 l 0.614143,0.29555 -1.559105,3.55664 c -0.867175,1.9782 -1.625405,3.56658 -1.708494,3.57904 -0.08216,0.0123 -0.407929,-0.0957 -0.723923,-0.24003 z m 38.800481,-3.85882 c -0.27945,-0.32445 -4.25425,-5.93945 -4.31317,-6.093 -0.0634,-0.16511 2.91947,-2.33555 3.69051,-2.6854 0.59975,-0.27211 1.11711,-0.27642 1.69471,-0.0141 0.62842,0.2854 0.95269,0.78318 1.00797,1.54733 0.0247,0.3416 -0.005,0.71416 -0.0658,0.82792 -0.10344,0.19328 -0.0625,0.20682 0.62573,0.20682 0.63843,0 0.79001,0.0409 1.13928,0.30729 0.55992,0.42707 0.8386,1.02036 0.8386,1.78536 0,0.98223 -0.29708,1.37526 -1.94202,2.56925 -2.09097,1.51776 -2.40529,1.74005 -2.46044,1.74005 -0.0277,0 -0.12468,-0.0862 -0.2154,-0.19151 z m 1.75746,-2.49646 c 0.55213,-0.39497 1.0824,-0.83797 1.17836,-0.98443 0.33261,-0.50763 -0.0368,-1.3202 -0.69014,-1.51801 -0.33302,-0.10083 -0.87826,0.15263 -1.89636,0.88155 l -0.87495,0.62642 0.18184,0.28177 c 0.46428,0.7194 0.97333,1.42292 1.03232,1.42669 0.0358,0.002 0.5168,-0.31901 1.06893,-0.71399 z m -2.01454,-2.799 c 1.20961,-0.88205 1.41362,-1.38353 0.79666,-1.95831 -0.47591,-0.44338 -0.86907,-0.29724 -2.56693,0.95414 l -0.35269,0.25995 0.50934,0.70802 c 0.28014,0.38942 0.55051,0.70803 0.60082,0.70803 0.0503,0 0.50607,-0.30233 1.0128,-0.67183 z m -49.544206,3.06759 c -0.398616,-0.27661 -0.603089,-0.48664 -0.553948,-0.56899 0.129776,-0.21748 4.221512,-6.25265 4.299911,-6.34221 0.08414,-0.0961 2.923925,1.81348 3.487913,2.34544 0.46931,0.44267 0.675391,0.92114 0.675391,1.56811 0,0.95885 -0.606045,1.90902 -1.47604,2.31415 -0.968483,0.451 -1.545655,0.32741 -3.0498,-0.65304 -0.524392,-0.34181 -0.988681,-0.61958 -1.031752,-0.61725 -0.04307,0.002 -0.441854,0.54403 -0.886187,1.20378 -0.444332,0.65976 -0.813675,1.19706 -0.820762,1.19401 -0.0071,-0.003 -0.297215,-0.20285 -0.644726,-0.444 z m 5.661506,-2.12745 c 0.574571,-0.27265 0.792634,-1.04784 0.43742,-1.55498 -0.192993,-0.27554 -1.49381,-1.23034 -1.676207,-1.23034 -0.06654,0 -0.390808,0.40302 -0.720591,0.8956 l -0.599605,0.89559 0.406183,0.27706 c 0.604266,0.41218 1.48019,0.88226 1.648147,0.88451 0.08119,0.001 0.308282,-0.0743 0.504653,-0.16744 z m -9.981599,-1.59455 c -1.158643,-1.14371 -2.106624,-2.10533 -2.106624,-2.13694 0,-0.0822 5.391572,-5.62104 5.465235,-5.61446 0.03368,0.003 0.996901,0.91152 2.140497,2.01891 l 2.079265,2.01345 -0.432591,0.44337 c -0.237925,0.24386 -0.471721,0.44338 -0.519545,0.44338 -0.04783,0 -0.731498,-0.62788 -1.519272,-1.3953 -0.787773,-0.76741 -1.46629,-1.40803 -1.507814,-1.42359 -0.04152,-0.0156 -0.345083,0.24758 -0.674578,0.58476 l -0.59908,0.61306 1.395296,1.33422 c 0.767413,0.73382 1.395296,1.38404 1.395296,1.44494 0,0.0609 -0.195054,0.30117 -0.433454,0.53397 l -0.433455,0.42325 -1.376323,-1.3586 c -0.756978,-0.74723 -1.413163,-1.3715 -1.45819,-1.38726 -0.04503,-0.0158 -0.39507,0.32116 -0.777871,0.74872 l -0.696003,0.77738 1.549631,1.5524 1.549632,1.5524 -0.466715,0.45571 -0.466714,0.45571 z m 59.383719,-0.61194 c -3.41172,-3.2816 -3.93105,-3.79629 -3.90224,-3.86743 0.0162,-0.04 0.92784,-1.00105 2.02591,-2.13572 l 1.99649,-2.06304 0.43844,0.42812 c 0.24114,0.23547 0.43844,0.46339 0.43844,0.5065 0,0.0431 -0.62788,0.72843 -1.39529,1.52296 -0.76742,0.79452 -1.40803,1.4769 -1.4236,1.5164 -0.0156,0.0395 0.2473,0.34139 0.58413,0.67089 l 0.61243,0.59908 1.34431,-1.3953 c 0.73937,-0.76741 1.38987,-1.3953 1.44557,-1.3953 0.0557,0 0.29299,0.19636 0.52734,0.43636 l 0.42609,0.43635 -1.36144,1.37287 c -0.74879,0.75508 -1.36143,1.41069 -1.36143,1.45691 0,0.0462 0.33887,0.40104 0.75304,0.78847 l 0.75303,0.70443 1.52454,-1.57075 1.52455,-1.57074 0.29414,0.25842 c 0.76988,0.67637 0.87865,0.456 -1.3675,2.7706 -1.11287,1.14679 -2.06186,2.09932 -2.10886,2.11672 -0.047,0.0174 -0.84264,-0.69665 -1.76809,-1.5868 z m -64.450667,-5.23737 c -0.317068,-0.42919 -0.416375,-0.64565 -0.338995,-0.73889 0.06019,-0.0725 1.244255,-0.94378 2.631251,-1.93612 1.386997,-0.99235 2.523309,-1.83248 2.525137,-1.86696 0.0018,-0.0345 -0.292149,-0.46607 -0.653284,-0.95909 -0.361135,-0.49302 -0.65661,-0.91796 -0.65661,-0.94432 0,-0.11123 0.995351,-0.72152 1.08569,-0.66569 0.103304,0.0639 3.546796,4.82138 3.590052,4.96002 0.0273,0.0875 -0.845744,0.70155 -0.991551,0.69738 -0.05022,-10e-4 -0.383751,-0.40184 -0.74117,-0.88978 -0.426825,-0.5827 -0.69595,-0.85951 -0.784164,-0.80656 -0.120685,0.0724 -0.769885,0.53935 -4.208205,3.02661 l -1.009717,0.73043 z m 69.440657,-0.23737 c -1.24392,-0.44519 -2.50196,-1.46297 -3.02154,-2.44448 -0.21335,-0.40303 -0.25664,-0.64932 -0.2582,-1.46912 -0.002,-0.86696 0.036,-1.06217 0.31482,-1.62993 0.4026,-0.81994 1.01856,-1.43602 1.78789,-1.78823 0.52275,-0.23932 0.70165,-0.26788 1.31762,-0.21036 0.39202,0.0366 0.7358,0.0896 0.76397,0.11777 0.0282,0.0282 -0.0631,0.37006 -0.2029,0.75976 l -0.25412,0.70855 -0.55136,-0.0108 c -0.71914,-0.014 -1.18409,0.23856 -1.53202,0.83227 -0.32066,0.54716 -0.37133,1.32459 -0.11824,1.81402 0.23468,0.45381 1.18802,1.26921 1.87946,1.6075 1.1533,0.56425 2.12899,0.44615 2.72045,-0.32929 0.53026,-0.69521 0.47238,-1.58557 -0.14908,-2.29323 -0.16819,-0.19151 -0.14723,-0.23024 0.36886,-0.68172 0.30094,-0.26327 0.60219,-0.47968 0.66942,-0.48092 0.14441,-0.003 0.59161,0.65885 0.81228,1.20154 0.54677,1.34465 -0.41502,3.43025 -1.91724,4.15746 -0.71448,0.34587 -1.88016,0.40755 -2.63007,0.13916 z M 71.378208,106.6129 c -0.881406,-0.3277 -1.865638,-1.71274 -2.136731,-3.00688 -0.195109,-0.93141 -0.0065,-1.60436 0.663775,-2.36771 0.598948,-0.68216 0.681394,-0.68028 1.122919,0.0256 l 0.390176,0.62378 -0.259246,0.27856 c -0.578248,0.62133 -0.661176,1.29069 -0.25863,2.08753 0.461597,0.91372 1.373148,1.22773 1.860395,0.64087 0.245715,-0.29595 0.241058,-0.52917 -0.03988,-1.99761 -0.353417,-1.84725 -0.132674,-2.75526 0.811715,-3.338922 0.635055,-0.39249 1.284517,-0.41869 1.977229,-0.0798 0.672228,0.32889 1.032576,0.747562 1.496269,1.738452 0.619023,1.32282 0.53524,2.3843 -0.250187,3.16973 -0.233654,0.23365 -0.47891,0.4068 -0.545011,0.38476 -0.0661,-0.022 -0.268213,-0.30207 -0.449134,-0.62231 -0.265568,-0.47006 -0.304221,-0.61653 -0.200606,-0.76018 0.420768,-0.58334 0.491528,-0.86146 0.348839,-1.3711 -0.274638,-0.98091 -1.089047,-1.57526 -1.589445,-1.15996 -0.217081,0.18016 -0.213159,0.96636 0.0099,1.99031 0.274059,1.2579 0.251604,2.13064 -0.06979,2.71253 -0.519904,0.94129 -1.862706,1.43151 -2.882582,1.05234 z m 74.731462,-3.07745 c -2.92786,-1.21891 -3.49824,-1.49169 -3.4795,-1.66406 0.0336,-0.30912 0.44882,-1.23226 0.55423,-1.23226 0.0506,0 0.74696,0.27085 1.54749,0.60189 0.80054,0.33104 1.49477,0.60189 1.54274,0.60189 0.048,0 -0.35118,-0.93241 -0.88699,-2.072022 -0.53582,-1.13961 -0.97421,-2.13346 -0.97421,-2.20856 0,-0.18672 0.68476,-1.84849 0.76021,-1.84489 0.0333,0.002 0.42554,0.85108 0.87164,1.88776 0.4461,1.03667 0.81591,1.89353 0.82179,1.90412 0.006,0.0106 1.266,-0.21768 2.80026,-0.50728 1.53427,-0.2896 2.80509,-0.51257 2.82405,-0.49548 0.019,0.0171 -0.13564,0.44234 -0.34358,0.94502 l -0.37805,0.913962 -2.11871,0.29621 c -1.16529,0.16292 -2.12632,0.29834 -2.13562,0.30095 -0.009,0.003 0.1431,0.38638 0.33866,0.85285 l 0.35557,0.84812 1.084,0.44716 c 0.59619,0.24593 1.08399,0.49216 1.08399,0.54717 0,0.24468 -0.53032,1.35736 -0.64196,1.34693 -0.0683,-0.006 -1.69995,-0.66764 -3.62601,-1.46948 z M 66.568209,95.868928 c -0.106458,-0.39952 -0.178632,-0.73789 -0.160387,-0.75193 0.07949,-0.0612 1.410797,-0.30472 1.450212,-0.26531 0.02402,0.024 0.113306,0.34506 0.198404,0.71342 l 0.154724,0.66973 -0.611496,0.13683 c -0.336322,0.0753 -0.662436,0.15637 -0.724696,0.18025 -0.06226,0.0239 -0.200303,-0.28346 -0.306761,-0.68299 z m 83.590561,0.64879 c -0.12038,-0.0258 -1.25303,-0.24758 -2.51701,-0.49282 -1.26397,-0.24524 -2.33763,-0.48198 -2.38591,-0.52609 -0.0483,-0.0441 -0.0277,-0.40642 0.0458,-0.80516 0.11924,-0.64717 0.15802,-0.71969 0.36136,-0.67575 2.05143,0.44328 4.80857,0.9571 5.20203,0.96944 0.88826,0.0279 1.39061,-0.51116 1.50446,-1.61427 0.051,-0.49451 0.0231,-0.60786 -0.22157,-0.89862 -0.34528,-0.41034 -0.5673,-0.47746 -3.59087,-1.08558 -1.33542,-0.26858 -2.44579,-0.50609 -2.46749,-0.52779 -0.047,-0.047 0.25658,-1.3837 0.33123,-1.45836 0.0876,-0.0876 5.12164,0.95852 5.76183,1.19739 1.5194,0.56694 1.95289,1.91246 1.29961,4.03386 -0.40595,1.31825 -1.22606,1.96739 -2.45519,1.94337 -0.35719,-0.007 -0.74791,-0.0338 -0.86829,-0.0596 z m -77.51568,-3.34824 c -0.06195,-0.37579 -0.145149,-0.89256 -0.184883,-1.14836 -0.04586,-0.29526 -0.129071,-0.4651 -0.227859,-0.4651 -0.08559,0 -1.490354,0.19698 -3.121703,0.43774 -1.631348,0.24076 -3.029743,0.43774 -3.107545,0.43774 -0.08843,0 -0.168785,-0.21536 -0.214361,-0.57453 -0.0401,-0.316 -0.09676,-0.65908 -0.125922,-0.7624 -0.06728,-0.2384 -0.182885,-0.21351 3.45233,-0.74315 1.650251,-0.24043 3.010946,-0.44941 3.023766,-0.4644 0.01282,-0.015 -0.04208,-0.42121 -0.12199,-0.90272 -0.24446,-1.47297 -0.255778,-1.43562 0.460462,-1.5198 0.339548,-0.0399 0.633842,-0.0561 0.653988,-0.0359 0.0357,0.0357 0.917354,5.89395 0.917354,6.09545 0,0.0557 -0.184671,0.13104 -0.410381,0.16733 -0.225709,0.0363 -0.516184,0.0875 -0.645499,0.11369 -0.211892,0.043 -0.246243,-0.0198 -0.347757,-0.63556 z m 73.84961,-5.65407 v -1.19529 l 0.35566,-0.11415 c 0.19561,-0.0628 1.36383,-0.38943 2.59603,-0.72588 1.99715,-0.54532 2.51869,-0.70904 2.25876,-0.70904 -0.0662,0 -3.54869,-0.86195 -4.90951,-1.21514 l -0.41038,-0.10651 v -1.19957 -1.19957 l 1.45001,-2.2e-4 c 0.79751,-1.1e-4 2.59498,-0.0326 3.99438,-0.0722 l 2.54436,-0.072 v 0.78353 0.78352 l -2.9821,0.003 c -1.69173,0.002 -2.91107,0.0435 -2.81795,0.0962 0.0903,0.0511 1.34605,0.37389 2.79059,0.71735 1.44454,0.34345 2.71262,0.64819 2.81795,0.6772 0.1598,0.044 0.19151,0.18336 0.19151,0.84157 v 0.78882 l -2.65379,0.68812 c -1.45959,0.37847 -2.77692,0.73035 -2.92739,0.78197 -0.16631,0.0571 0.8693,0.0972 2.64104,0.10249 l 2.91462,0.009 0.066,0.24623 c 0.0363,0.13542 0.0667,0.44809 0.0675,0.69482 l 0.001,0.44859 -1.06699,0.0707 c -0.58684,0.0389 -2.38431,0.0709 -3.99437,0.0712 l -2.92738,5.3e-4 z m -79.723399,-0.38388 c -0.591696,-0.21625 -1.306667,-1.01655 -1.463069,-1.63768 -0.169872,-0.67463 -0.155418,-2.11484 0.02732,-2.72203 0.290809,-0.96628 0.956375,-1.58392 1.986293,-1.84326 0.631137,-0.15892 0.703925,-0.0768 0.706284,0.79719 0.0016,0.60709 -0.0064,0.62341 -0.363296,0.74121 -0.681077,0.22478 -1.167118,0.93808 -1.167118,1.71284 0,1.23225 1.119301,1.93472 1.701429,1.06782 0.12712,-0.1893 0.343115,-0.76091 0.479991,-1.27024 0.536798,-1.99749 1.22153,-2.7609 2.477559,-2.76225 1.197047,-0.001 1.938823,0.73196 2.155298,2.1305 0.298352,1.92752 -0.548951,3.53922 -1.943261,3.69638 l -0.493616,0.0556 v -0.77881 -0.77881 l 0.37451,-0.15648 c 0.432378,-0.18065 0.668397,-0.50701 0.759529,-1.05024 0.129313,-0.77081 -0.275477,-1.64152 -0.76314,-1.64152 -0.388038,0 -0.612405,0.43101 -1.180723,2.26816 -0.358465,1.15878 -0.715588,1.71725 -1.283359,2.0069 -0.587354,0.29965 -1.448382,0.37017 -2.010629,0.16468 z m 28.5142,-39.967617 c -0.620756,-2.012129 -1.104024,-3.683039 -1.073928,-3.713135 0.135396,-0.135396 3.263815,-1.038887 3.803417,-1.098431 1.338185,-0.147666 2.3599,0.50704 3.05126,1.955237 1.05685,2.21382 0.84636,4.13462 -0.55472,5.06181 -0.38847,0.257075 -1.867685,0.79542 -3.543189,1.289509 l -0.554191,0.163426 z m 3.243814,1.668921 c 1.03305,-0.351364 1.21151,-0.457179 1.46095,-0.866279 0.255725,-0.419384 0.270995,-1.011893 0.04811,-1.867507 -0.573055,-2.199808 -1.303025,-2.695148 -3.159625,-2.143985 -0.458527,0.136122 -0.834512,0.277254 -0.835523,0.313628 -0.0078,0.280154 1.486797,4.826557 1.586681,4.826557 0.07028,0 0.47497,-0.118086 0.899312,-0.262414 z m 21.573645,1.152491 c -2.06953,-0.680939 -3.05917,-2.42799 -2.56594,-4.529768 0.34044,-1.450731 1.11125,-2.49638 2.21154,-3.000109 1.34707,-0.616708 3.74906,-0.08306 4.59026,1.019804 0.32795,0.429964 0.59718,1.144386 0.59718,1.584661 0,0.292322 -0.03,0.314545 -0.42406,0.314545 -0.85921,0 -1.06937,-0.09603 -1.20565,-0.550888 -0.3062,-1.022031 -1.71033,-1.608704 -2.78027,-1.161655 -0.83917,0.350627 -1.51475,1.64472 -1.52434,2.919914 -0.008,1.080238 0.46742,1.78461 1.43544,2.126145 0.56465,0.199219 0.80441,0.207388 1.52862,0.05207 0.45579,-0.09775 0.55361,-0.163293 0.61247,-0.410381 0.0385,-0.161727 0.095,-0.378217 0.12553,-0.481087 0.0451,-0.152118 -0.10047,-0.232347 -0.77979,-0.429733 l -0.83527,-0.242697 0.0704,-0.375354 c 0.0387,-0.206445 0.11319,-0.48785 0.16546,-0.625347 l 0.095,-0.249992 1.56668,0.444817 c 0.86168,0.24465 1.58412,0.457804 1.60542,0.473677 0.0213,0.01587 -0.15592,0.684457 -0.39382,1.485742 -0.52694,1.774792 -0.51294,1.763644 -2.27135,1.808712 -0.94236,0.02415 -1.33838,-0.01343 -1.82358,-0.173079 z m -16.66984,-1.489509 c -0.0573,-0.349687 -0.71242,-6.991956 -0.71242,-7.223247 0,-0.09611 0.61631,-0.192008 2.12723,-0.330996 l 2.12722,-0.19568 0.6088,0.297855 c 0.73376,0.358999 1.11377,0.925685 1.21831,1.816829 0.20233,1.724712 -0.75534,2.611995 -3.02335,2.801139 -0.4676,0.039 -0.89863,0.10112 -0.95785,0.138051 -0.07,0.04363 -0.058,0.546316 0.0342,1.435086 0.078,0.752365 0.11887,1.391715 0.0908,1.420777 -0.0281,0.02906 -0.36783,0.07941 -0.75492,0.111896 l -0.7038,0.05906 z m 2.64987,-4.177092 c 0.6961,-0.09536 1.12454,-0.514528 1.12454,-1.100197 0,-0.824192 -0.49653,-1.131572 -1.69704,-1.050554 -0.3607,0.02434 -0.77095,0.06835 -0.91169,0.09779 -0.27896,0.05836 -0.2738,-0.0754 -0.0644,1.669348 l 0.0702,0.585199 0.48072,-0.06538 c 0.26439,-0.03596 0.71336,-0.09725 0.9977,-0.136202 z m 5.95562,4.16675 c -0.57319,-0.154196 -1.13139,-0.472695 -1.41763,-0.808863 -0.24387,-0.286407 -0.55478,-1.031029 -0.63192,-1.513398 l -0.0736,-0.46045 h 0.76785 0.76785 l 0.0698,0.37192 c 0.14736,0.785457 0.82001,1.269605 1.76395,1.269605 0.79315,0 1.35679,-0.411071 1.36182,-0.993198 0.004,-0.426629 -0.3899,-0.712833 -1.58901,-1.155498 -1.60147,-0.591199 -2.07151,-0.926148 -2.39876,-1.709378 -0.22197,-0.531246 -0.20919,-1.020646 0.041,-1.571662 0.36504,-0.803852 1.20771,-1.243926 2.38433,-1.245188 1.77155,-0.0019 2.89607,0.751885 3.1418,2.106013 l 0.0745,0.410382 h -0.81355 -0.81354 l -0.0728,-0.388243 c -0.10261,-0.546927 -0.57282,-0.8146 -1.43191,-0.815133 -0.79072,-4.91e-4 -1.14606,0.199632 -1.14606,0.645445 0,0.441198 0.25329,0.614661 1.69773,1.162672 1.48756,0.564372 1.96513,0.886057 2.25144,1.516536 0.59358,1.3071 -0.13819,2.890016 -1.49383,3.231371 -0.64205,0.16167 -1.72937,0.138076 -2.4394,-0.05293 z"
       style="display:inline;fill:#000000;fill-opacity:1;stroke:none;stroke-width:0.309;stroke-miterlimit:4;stroke-dasharray:none;stroke-opacity:1"
       id="path1234" />
  </g>
</svg>
